<?xml version="1.0" encoding="UTF-8" standalone="no"?><svg xmlns="http://www.w3.org/2000/svg" xmlns:xlink="http://www.w3.org/1999/xlink" clip-rule="evenodd" stroke-miterlimit="10" viewBox="0 0 709 42"><desc>SVG generated by Keynote</desc><defs></defs><g transform="matrix(1.00, 0.00, -0.00, -1.00, 0.0, 42.0)"><image xlink:href="../../DAA1CE98-60D5-4253-8D04-2ED59D80D482/assets/2BDD2B3C826D2EA307C0199CDD88384E.png" width="80.00" height="80.00" transform="matrix(0.24, 0.00, -0.00, -0.24, 0.2, 31.3)"></image><text xml:space="preserve" font-family="Helvetica-Bold,Helvetica" font-weight="bold" font-size="42.0" fill="#000000" transform="matrix(1.00, 0.00, -0.00, -1.00, 58.6, 10.6)">T</text><text xml:space="preserve" font-family="Helvetica-Bold,Helvetica" font-weight="bold" font-size="42.0" fill="#000000" transform="matrix(1.00, 0.00, -0.00, -1.00, 84.2, 10.6)">h</text><text xml:space="preserve" font-family="Helvetica-Bold,Helvetica" font-weight="bold" font-size="42.0" fill="#000000" transform="matrix(1.00, 0.00, -0.00, -1.00, 109.9, 10.6)">e</text><text xml:space="preserve" font-family="Helvetica-Bold,Helvetica" font-weight="bold" font-size="42.0" fill="#000000" transform="matrix(1.00, 0.00, -0.00, -1.00, 133.2, 10.6)">n</text><text xml:space="preserve" font-family="Helvetica-Light,Helvetica" font-size="42.0" fill="#000000" transform="matrix(1.00, 0.00, -0.00, -1.00, 158.9, 10.6)"> </text><text xml:space="preserve" font-family="Helvetica-Light,Helvetica" font-size="42.0" fill="#000000" transform="matrix(1.00, 0.00, -0.00, -1.00, 170.6, 10.6)">-</text><text xml:space="preserve" font-family="Helvetica-Light,Helvetica" font-size="42.0" fill="#000000" transform="matrix(1.00, 0.00, -0.00, -1.00, 184.5, 10.6)"> </text><text xml:space="preserve" font-family="Helvetica-Light,Helvetica" font-size="42.0" fill="#000000" transform="matrix(1.00, 0.00, -0.00, -1.00, 196.2, 10.6)">j</text><text xml:space="preserve" font-family="Helvetica-Light,Helvetica" font-size="42.0" fill="#000000" transform="matrix(1.00, 0.00, -0.00, -1.00, 205.5, 10.6)">a</text><text xml:space="preserve" font-family="Helvetica-Light,Helvetica" font-size="42.0" fill="#000000" transform="matrix(1.00, 0.00, -0.00, -1.00, 228.9, 10.6)">k</text><text xml:space="preserve" font-family="Helvetica-Light,Helvetica" font-size="42.0" fill="#000000" transform="matrix(1.00, 0.00, -0.00, -1.00, 249.9, 10.6)">ý</text><text xml:space="preserve" font-family="Helvetica-Light,Helvetica" font-size="42.0" fill="#000000" transform="matrix(1.00, 0.00, -0.00, -1.00, 270.9, 10.6)"> </text><text xml:space="preserve" font-family="Helvetica-Light,Helvetica" font-size="42.0" fill="#000000" transform="matrix(1.00, 0.00, -0.00, -1.00, 282.6, 10.6)">j</text><text xml:space="preserve" font-family="Helvetica-Light,Helvetica" font-size="42.0" fill="#000000" transform="matrix(1.00, 0.00, -0.00, -1.00, 291.9, 10.6)">e</text><text xml:space="preserve" font-family="Helvetica-Light,Helvetica" font-size="42.0" fill="#000000" transform="matrix(1.00, 0.00, -0.00, -1.00, 315.2, 10.6)"> </text><text xml:space="preserve" font-family="Helvetica-Light,Helvetica" font-size="42.0" fill="#000000" transform="matrix(1.00, 0.00, -0.00, -1.00, 326.9, 10.6)">o</text><text xml:space="preserve" font-family="Helvetica-Light,Helvetica" font-size="42.0" fill="#000000" transform="matrix(1.00, 0.00, -0.00, -1.00, 350.3, 10.6)">č</text><text xml:space="preserve" font-family="Helvetica-Light,Helvetica" font-size="42.0" fill="#000000" transform="matrix(1.00, 0.00, -0.00, -1.00, 373.6, 10.6)">e</text><text xml:space="preserve" font-family="Helvetica-Light,Helvetica" font-size="42.0" fill="#000000" transform="matrix(1.00, 0.00, -0.00, -1.00, 397.0, 10.6)">k</text><text xml:space="preserve" font-family="Helvetica-Light,Helvetica" font-size="42.0" fill="#000000" transform="matrix(1.00, 0.00, -0.00, -1.00, 418.0, 10.6)">á</text><text xml:space="preserve" font-family="Helvetica-Light,Helvetica" font-size="42.0" fill="#000000" transform="matrix(1.00, 0.00, -0.00, -1.00, 441.3, 10.6)">v</text><text xml:space="preserve" font-family="Helvetica-Light,Helvetica" font-size="42.0" fill="#000000" transform="matrix(1.00, 0.00, -0.00, -1.00, 462.3, 10.6)">a</text><text xml:space="preserve" font-family="Helvetica-Light,Helvetica" font-size="42.0" fill="#000000" transform="matrix(1.00, 0.00, -0.00, -1.00, 485.7, 10.6)">n</text><text xml:space="preserve" font-family="Helvetica-Light,Helvetica" font-size="42.0" fill="#000000" transform="matrix(1.00, 0.00, -0.00, -1.00, 509.0, 10.6)">ý</text><text xml:space="preserve" font-family="Helvetica-Light,Helvetica" font-size="42.0" fill="#000000" transform="matrix(1.00, 0.00, -0.00, -1.00, 530.0, 10.6)"> </text><text xml:space="preserve" font-family="Helvetica-Light,Helvetica" font-size="42.0" fill="#000000" transform="matrix(1.00, 0.00, -0.00, -1.00, 541.7, 10.6)">v</text><text xml:space="preserve" font-family="Helvetica-Light,Helvetica" font-size="42.0" fill="#000000" transform="matrix(1.00, 0.00, -0.00, -1.00, 562.7, 10.6)">ý</text><text xml:space="preserve" font-family="Helvetica-Light,Helvetica" font-size="42.0" fill="#000000" transform="matrix(1.00, 0.00, -0.00, -1.00, 583.7, 10.6)">s</text><text xml:space="preserve" font-family="Helvetica-Light,Helvetica" font-size="42.0" fill="#000000" transform="matrix(1.00, 0.00, -0.00, -1.00, 604.7, 10.6)">l</text><text xml:space="preserve" font-family="Helvetica-Light,Helvetica" font-size="42.0" fill="#000000" transform="matrix(1.00, 0.00, -0.00, -1.00, 614.0, 10.6)">e</text><text xml:space="preserve" font-family="Helvetica-Light,Helvetica" font-size="42.0" fill="#000000" transform="matrix(1.00, 0.00, -0.00, -1.00, 637.4, 10.6)">d</text><text xml:space="preserve" font-family="Helvetica-Light,Helvetica" font-size="42.0" fill="#000000" transform="matrix(1.00, 0.00, -0.00, -1.00, 663.0, 10.6)">e</text><text xml:space="preserve" font-family="Helvetica-Light,Helvetica" font-size="42.0" fill="#000000" transform="matrix(1.00, 0.00, -0.00, -1.00, 686.4, 10.6)">k</text></g></svg>