<?xml version="1.0" encoding="UTF-8" standalone="no"?><svg xmlns="http://www.w3.org/2000/svg" xmlns:xlink="http://www.w3.org/1999/xlink" clip-rule="evenodd" stroke-miterlimit="10" viewBox="0 0 1024 768"><desc>SVG generated by Keynote</desc><defs></defs><g transform="matrix(1.00, 0.00, -0.00, -1.00, 0.0, 768.0)"><path d="M 0.0 768.0 L 1024.0 768.0 L 1024.0 0.0 L 0.0 0.0 Z M 0.0 768.0 " fill="#FEFFFF"></path><text xml:space="preserve" font-family="Helvetica-Light,Helvetica" font-size="80.0" fill="#8948B3" transform="matrix(1.00, 0.00, -0.00, -1.00, 343.1, 608.4)">H</text><text xml:space="preserve" font-family="Helvetica-Light,Helvetica" font-size="80.0" fill="#8948B3" transform="matrix(1.00, 0.00, -0.00, -1.00, 400.8, 608.4)">e</text><text xml:space="preserve" font-family="Helvetica-Light,Helvetica" font-size="80.0" fill="#8948B3" transform="matrix(1.00, 0.00, -0.00, -1.00, 445.3, 608.4)">a</text><text xml:space="preserve" font-family="Helvetica-Light,Helvetica" font-size="80.0" fill="#8948B3" transform="matrix(1.00, 0.00, -0.00, -1.00, 489.8, 608.4)">d</text><text xml:space="preserve" font-family="Helvetica-Light,Helvetica" font-size="80.0" fill="#8948B3" transform="matrix(1.00, 0.00, -0.00, -1.00, 538.7, 608.4)">l</text><text xml:space="preserve" font-family="Helvetica-Light,Helvetica" font-size="80.0" fill="#8948B3" transform="matrix(1.00, 0.00, -0.00, -1.00, 556.4, 608.4)">e</text><text xml:space="preserve" font-family="Helvetica-Light,Helvetica" font-size="80.0" fill="#8948B3" transform="matrix(1.00, 0.00, -0.00, -1.00, 600.9, 608.4)">s</text><text xml:space="preserve" font-family="Helvetica-Light,Helvetica" font-size="80.0" fill="#8948B3" transform="matrix(1.00, 0.00, -0.00, -1.00, 640.9, 608.4)">s</text><image xlink:href="../../DAA1CE98-60D5-4253-8D04-2ED59D80D482/assets/2BDD2B3C826D2EA307C0199CDD88384E.png" width="80.00" height="80.00" transform="matrix(0.34, 0.00, -0.00, -0.34, 109.3, 470.0)"></image><text xml:space="preserve" font-family="Helvetica-Light,Helvetica" font-size="60.0" fill="#000000" transform="matrix(1.00, 0.00, -0.00, -1.00, 167.6, 440.3)">C</text><text xml:space="preserve" font-family="Helvetica-Light,Helvetica" font-size="60.0" fill="#000000" transform="matrix(1.00, 0.00, -0.00, -1.00, 210.9, 440.3)">a</text><text xml:space="preserve" font-family="Helvetica-Light,Helvetica" font-size="60.0" fill="#000000" transform="matrix(1.00, 0.00, -0.00, -1.00, 244.3, 440.3)">s</text><text xml:space="preserve" font-family="Helvetica-Light,Helvetica" font-size="60.0" fill="#000000" transform="matrix(1.00, 0.00, -0.00, -1.00, 274.3, 440.3)">p</text><text xml:space="preserve" font-family="Helvetica-Light,Helvetica" font-size="60.0" fill="#000000" transform="matrix(1.00, 0.00, -0.00, -1.00, 311.0, 440.3)">e</text><text xml:space="preserve" font-family="Helvetica-Light,Helvetica" font-size="60.0" fill="#000000" transform="matrix(1.00, 0.00, -0.00, -1.00, 344.3, 440.3)">r</text><text xml:space="preserve" font-family="Helvetica-Light,Helvetica" font-size="60.0" fill="#000000" transform="matrix(1.00, 0.00, -0.00, -1.00, 364.3, 440.3)">J</text><text xml:space="preserve" font-family="Helvetica-Light,Helvetica" font-size="60.0" fill="#000000" transform="matrix(1.00, 0.00, -0.00, -1.00, 394.3, 440.3)">S</text><text xml:space="preserve" font-family="Helvetica-Light,Helvetica" font-size="60.0" fill="#000000" transform="matrix(1.00, 0.00, -0.00, -1.00, 431.0, 440.3)"> </text><text xml:space="preserve" font-family="Helvetica-Light,Helvetica" font-size="60.0" fill="#000000" transform="matrix(1.00, 0.00, -0.00, -1.00, 447.6, 440.3)">-</text><text xml:space="preserve" font-family="Helvetica-Light,Helvetica" font-size="60.0" fill="#000000" transform="matrix(1.00, 0.00, -0.00, -1.00, 467.6, 440.3)">&gt;</text><text xml:space="preserve" font-family="Helvetica-Light,Helvetica" font-size="60.0" fill="#000000" transform="matrix(1.00, 0.00, -0.00, -1.00, 507.2, 440.3)"> </text><text xml:space="preserve" font-family="Helvetica-Light,Helvetica" font-size="60.0" fill="#000000" transform="matrix(1.00, 0.00, -0.00, -1.00, 523.9, 440.3)">S</text><text xml:space="preserve" font-family="Helvetica-Light,Helvetica" font-size="60.0" fill="#000000" transform="matrix(1.00, 0.00, -0.00, -1.00, 560.6, 440.3)">l</text><text xml:space="preserve" font-family="Helvetica-Light,Helvetica" font-size="60.0" fill="#000000" transform="matrix(1.00, 0.00, -0.00, -1.00, 573.9, 440.3)">i</text><text xml:space="preserve" font-family="Helvetica-Light,Helvetica" font-size="60.0" fill="#000000" transform="matrix(1.00, 0.00, -0.00, -1.00, 587.2, 440.3)">m</text><text xml:space="preserve" font-family="Helvetica-Light,Helvetica" font-size="60.0" fill="#000000" transform="matrix(1.00, 0.00, -0.00, -1.00, 637.2, 440.3)">e</text><text xml:space="preserve" font-family="Helvetica-Light,Helvetica" font-size="60.0" fill="#000000" transform="matrix(1.00, 0.00, -0.00, -1.00, 670.5, 440.3)">r</text><text xml:space="preserve" font-family="Helvetica-Light,Helvetica" font-size="60.0" fill="#000000" transform="matrix(1.00, 0.00, -0.00, -1.00, 690.5, 440.3)">J</text><text xml:space="preserve" font-family="Helvetica-Light,Helvetica" font-size="60.0" fill="#000000" transform="matrix(1.00, 0.00, -0.00, -1.00, 720.5, 440.3)">S</text><image xlink:href="../../BC4B1BF9-9D79-46C8-9AD6-F5BBD32F149C/assets/9583AE3641F45A8FCB64F6990F629DAA.png" width="215.00" height="340.00" transform="matrix(1.00, 0.00, -0.00, -1.00, 168.0, 398.0)"></image><image xlink:href="../../BC4B1BF9-9D79-46C8-9AD6-F5BBD32F149C/assets/21548CB031C8AF2ED72268F25170C372.png" width="211.00" height="150.00" transform="matrix(1.90, 0.00, -0.00, -1.89, 457.0, 350.0)"></image></g></svg>