<?xml version="1.0" encoding="UTF-8" standalone="no"?><svg xmlns="http://www.w3.org/2000/svg" xmlns:xlink="http://www.w3.org/1999/xlink" clip-rule="evenodd" stroke-miterlimit="10" viewBox="0 0 1024 768"><desc>SVG generated by Keynote</desc><defs></defs><g transform="matrix(1.00, 0.00, -0.00, -1.00, 0.0, 768.0)"><path d="M 0.0 768.0 L 1024.0 768.0 L 1024.0 0.0 L 0.0 0.0 Z M 0.0 768.0 " fill="#FEFFFF"></path><text xml:space="preserve" font-family="Helvetica-Light,Helvetica" font-size="80.0" fill="#8948B3" transform="matrix(1.00, 0.00, -0.00, -1.00, 136.4, 608.4)">M</text><text xml:space="preserve" font-family="Helvetica-Light,Helvetica" font-size="80.0" fill="#8948B3" transform="matrix(1.00, 0.00, -0.00, -1.00, 203.0, 608.4)">o</text><text xml:space="preserve" font-family="Helvetica-Light,Helvetica" font-size="80.0" fill="#8948B3" transform="matrix(1.00, 0.00, -0.00, -1.00, 247.5, 608.4)">h</text><text xml:space="preserve" font-family="Helvetica-Light,Helvetica" font-size="80.0" fill="#8948B3" transform="matrix(1.00, 0.00, -0.00, -1.00, 292.0, 608.4)">l</text><text xml:space="preserve" font-family="Helvetica-Light,Helvetica" font-size="80.0" fill="#8948B3" transform="matrix(1.00, 0.00, -0.00, -1.00, 309.7, 608.4)">o</text><text xml:space="preserve" font-family="Helvetica-Light,Helvetica" font-size="80.0" fill="#8948B3" transform="matrix(1.00, 0.00, -0.00, -1.00, 354.2, 608.4)"> </text><text xml:space="preserve" font-family="Helvetica-Light,Helvetica" font-size="80.0" fill="#8948B3" transform="matrix(1.00, 0.00, -0.00, -1.00, 376.4, 608.4)">b</text><text xml:space="preserve" font-family="Helvetica-Light,Helvetica" font-size="80.0" fill="#8948B3" transform="matrix(1.00, 0.00, -0.00, -1.00, 425.3, 608.4)">y</text><text xml:space="preserve" font-family="Helvetica-Light,Helvetica" font-size="80.0" fill="#8948B3" transform="matrix(1.00, 0.00, -0.00, -1.00, 465.3, 608.4)"> </text><text xml:space="preserve" font-family="Helvetica-Light,Helvetica" font-size="80.0" fill="#8948B3" transform="matrix(1.00, 0.00, -0.00, -1.00, 487.6, 608.4)">v</text><text xml:space="preserve" font-family="Helvetica-Light,Helvetica" font-size="80.0" fill="#8948B3" transform="matrix(1.00, 0.00, -0.00, -1.00, 527.6, 608.4)">á</text><text xml:space="preserve" font-family="Helvetica-Light,Helvetica" font-size="80.0" fill="#8948B3" transform="matrix(1.00, 0.00, -0.00, -1.00, 572.0, 608.4)">s</text><text xml:space="preserve" font-family="Helvetica-Light,Helvetica" font-size="80.0" fill="#8948B3" transform="matrix(1.00, 0.00, -0.00, -1.00, 612.0, 608.4)"> </text><text xml:space="preserve" font-family="Helvetica-Light,Helvetica" font-size="80.0" fill="#8948B3" transform="matrix(1.00, 0.00, -0.00, -1.00, 634.3, 608.4)">z</text><text xml:space="preserve" font-family="Helvetica-Light,Helvetica" font-size="80.0" fill="#8948B3" transform="matrix(1.00, 0.00, -0.00, -1.00, 674.3, 608.4)">a</text><text xml:space="preserve" font-family="Helvetica-Light,Helvetica" font-size="80.0" fill="#8948B3" transform="matrix(1.00, 0.00, -0.00, -1.00, 718.8, 608.4)">j</text><text xml:space="preserve" font-family="Helvetica-Light,Helvetica" font-size="80.0" fill="#8948B3" transform="matrix(1.00, 0.00, -0.00, -1.00, 736.5, 608.4)">í</text><text xml:space="preserve" font-family="Helvetica-Light,Helvetica" font-size="80.0" fill="#8948B3" transform="matrix(1.00, 0.00, -0.00, -1.00, 754.3, 608.4)">m</text><text xml:space="preserve" font-family="Helvetica-Light,Helvetica" font-size="80.0" fill="#8948B3" transform="matrix(1.00, 0.00, -0.00, -1.00, 820.9, 608.4)">a</text><text xml:space="preserve" font-family="Helvetica-Light,Helvetica" font-size="80.0" fill="#8948B3" transform="matrix(1.00, 0.00, -0.00, -1.00, 865.4, 608.4)">t</text><image xlink:href="../../DAA1CE98-60D5-4253-8D04-2ED59D80D482/assets/2BDD2B3C826D2EA307C0199CDD88384E.png" width="80.00" height="80.00" transform="matrix(0.34, 0.00, -0.00, -0.34, 104.0, 475.5)"></image><text xml:space="preserve" font-family="Helvetica-Light,Helvetica" font-size="60.0" fill="#000000" transform="matrix(1.00, 0.00, -0.00, -1.00, 162.3, 445.8)">M</text><text xml:space="preserve" font-family="Helvetica-Light,Helvetica" font-size="60.0" fill="#000000" transform="matrix(1.00, 0.00, -0.00, -1.00, 212.3, 445.8)">o</text><text xml:space="preserve" font-family="Helvetica-Light,Helvetica" font-size="60.0" fill="#000000" transform="matrix(1.00, 0.00, -0.00, -1.00, 245.7, 445.8)">c</text><text xml:space="preserve" font-family="Helvetica-Light,Helvetica" font-size="60.0" fill="#000000" transform="matrix(1.00, 0.00, -0.00, -1.00, 279.0, 445.8)">k</text><text xml:space="preserve" font-family="Helvetica-Light,Helvetica" font-size="60.0" fill="#000000" transform="matrix(1.00, 0.00, -0.00, -1.00, 309.0, 445.8)"> </text><text xml:space="preserve" font-family="Helvetica-Light,Helvetica" font-size="60.0" fill="#000000" transform="matrix(1.00, 0.00, -0.00, -1.00, 325.7, 445.8)">o</text><text xml:space="preserve" font-family="Helvetica-Light,Helvetica" font-size="60.0" fill="#000000" transform="matrix(1.00, 0.00, -0.00, -1.00, 359.1, 445.8)">b</text><text xml:space="preserve" font-family="Helvetica-Light,Helvetica" font-size="60.0" fill="#000000" transform="matrix(1.00, 0.00, -0.00, -1.00, 395.7, 445.8)">j</text><text xml:space="preserve" font-family="Helvetica-Light,Helvetica" font-size="60.0" fill="#000000" transform="matrix(1.00, 0.00, -0.00, -1.00, 409.1, 445.8)">e</text><text xml:space="preserve" font-family="Helvetica-Light,Helvetica" font-size="60.0" fill="#000000" transform="matrix(1.00, 0.00, -0.00, -1.00, 442.4, 445.8)">k</text><text xml:space="preserve" font-family="Helvetica-Light,Helvetica" font-size="60.0" fill="#000000" transform="matrix(1.00, 0.00, -0.00, -1.00, 472.4, 445.8)">t</text><text xml:space="preserve" font-family="Helvetica-Light,Helvetica" font-size="60.0" fill="#000000" transform="matrix(1.00, 0.00, -0.00, -1.00, 489.1, 445.8)">y</text><text xml:space="preserve" font-family="Helvetica-Light,Helvetica" font-size="60.0" fill="#000000" transform="matrix(1.00, 0.00, -0.00, -1.00, 519.1, 445.8)"> </text><text xml:space="preserve" font-family="Helvetica-Light,Helvetica" font-size="60.0" fill="#000000" transform="matrix(1.00, 0.00, -0.00, -1.00, 535.8, 445.8)">(</text><text xml:space="preserve" font-family="Helvetica-Light,Helvetica" font-size="60.0" fill="#000000" transform="matrix(1.00, 0.00, -0.00, -1.00, 555.8, 445.8)">e</text><text xml:space="preserve" font-family="Helvetica-Light,Helvetica" font-size="60.0" fill="#000000" transform="matrix(1.00, 0.00, -0.00, -1.00, 589.1, 445.8)">n</text><text xml:space="preserve" font-family="Helvetica-Light,Helvetica" font-size="60.0" fill="#000000" transform="matrix(1.00, 0.00, -0.00, -1.00, 622.5, 445.8)">d</text><text xml:space="preserve" font-family="Helvetica-Light,Helvetica" font-size="60.0" fill="#000000" transform="matrix(1.00, 0.00, -0.00, -1.00, 659.1, 445.8)">o</text><text xml:space="preserve" font-family="Helvetica-Light,Helvetica" font-size="60.0" fill="#000000" transform="matrix(1.00, 0.00, -0.00, -1.00, 692.5, 445.8)">-</text><text xml:space="preserve" font-family="Helvetica-Light,Helvetica" font-size="60.0" fill="#000000" transform="matrix(1.00, 0.00, -0.00, -1.00, 712.5, 445.8)">t</text><text xml:space="preserve" font-family="Helvetica-Light,Helvetica" font-size="60.0" fill="#000000" transform="matrix(1.00, 0.00, -0.00, -1.00, 729.2, 445.8)">e</text><text xml:space="preserve" font-family="Helvetica-Light,Helvetica" font-size="60.0" fill="#000000" transform="matrix(1.00, 0.00, -0.00, -1.00, 762.5, 445.8)">s</text><text xml:space="preserve" font-family="Helvetica-Light,Helvetica" font-size="60.0" fill="#000000" transform="matrix(1.00, 0.00, -0.00, -1.00, 792.5, 445.8)">t</text><text xml:space="preserve" font-family="Helvetica-Light,Helvetica" font-size="60.0" fill="#000000" transform="matrix(1.00, 0.00, -0.00, -1.00, 809.2, 445.8)">i</text><text xml:space="preserve" font-family="Helvetica-Light,Helvetica" font-size="60.0" fill="#000000" transform="matrix(1.00, 0.00, -0.00, -1.00, 822.5, 445.8)">n</text><text xml:space="preserve" font-family="Helvetica-Light,Helvetica" font-size="60.0" fill="#000000" transform="matrix(1.00, 0.00, -0.00, -1.00, 855.9, 445.8)">g</text><text xml:space="preserve" font-family="Helvetica-Light,Helvetica" font-size="60.0" fill="#000000" transform="matrix(1.00, 0.00, -0.00, -1.00, 892.5, 445.8)">)</text><image xlink:href="../../DAA1CE98-60D5-4253-8D04-2ED59D80D482/assets/2BDD2B3C826D2EA307C0199CDD88384E.png" width="80.00" height="80.00" transform="matrix(0.24, 0.00, -0.00, -0.24, 162.7, 353.6)"></image><text xml:space="preserve" font-family="Helvetica-Light,Helvetica" font-size="42.0" fill="#000000" transform="matrix(1.00, 0.00, -0.00, -1.00, 221.0, 332.8)">s</text><text xml:space="preserve" font-family="Helvetica-Light,Helvetica" font-size="42.0" fill="#000000" transform="matrix(1.00, 0.00, -0.00, -1.00, 242.0, 332.8)">p</text><text xml:space="preserve" font-family="Helvetica-Light,Helvetica" font-size="42.0" fill="#000000" transform="matrix(1.00, 0.00, -0.00, -1.00, 267.7, 332.8)">i</text><text xml:space="preserve" font-family="Helvetica-Light,Helvetica" font-size="42.0" fill="#000000" transform="matrix(1.00, 0.00, -0.00, -1.00, 277.0, 332.8)">o</text><text xml:space="preserve" font-family="Helvetica-Light,Helvetica" font-size="42.0" fill="#000000" transform="matrix(1.00, 0.00, -0.00, -1.00, 300.4, 332.8)">n</text><image xlink:href="../../DAA1CE98-60D5-4253-8D04-2ED59D80D482/assets/2BDD2B3C826D2EA307C0199CDD88384E.png" width="80.00" height="80.00" transform="matrix(0.24, 0.00, -0.00, -0.24, 162.7, 285.4)"></image><text xml:space="preserve" font-family="Helvetica-Light,Helvetica" font-size="42.0" fill="#000000" transform="matrix(1.00, 0.00, -0.00, -1.00, 221.0, 264.6)">z</text><text xml:space="preserve" font-family="Helvetica-Light,Helvetica" font-size="42.0" fill="#000000" transform="matrix(1.00, 0.00, -0.00, -1.00, 242.0, 264.6)">a</text><text xml:space="preserve" font-family="Helvetica-Light,Helvetica" font-size="42.0" fill="#000000" transform="matrix(1.00, 0.00, -0.00, -1.00, 265.4, 264.6)">z</text><text xml:space="preserve" font-family="Helvetica-Light,Helvetica" font-size="42.0" fill="#000000" transform="matrix(1.00, 0.00, -0.00, -1.00, 286.4, 264.6)">n</text><text xml:space="preserve" font-family="Helvetica-Light,Helvetica" font-size="42.0" fill="#000000" transform="matrix(1.00, 0.00, -0.00, -1.00, 309.7, 264.6)">a</text><text xml:space="preserve" font-family="Helvetica-Light,Helvetica" font-size="42.0" fill="#000000" transform="matrix(1.00, 0.00, -0.00, -1.00, 333.1, 264.6)">m</text><text xml:space="preserve" font-family="Helvetica-Light,Helvetica" font-size="42.0" fill="#000000" transform="matrix(1.00, 0.00, -0.00, -1.00, 368.1, 264.6)">e</text><text xml:space="preserve" font-family="Helvetica-Light,Helvetica" font-size="42.0" fill="#000000" transform="matrix(1.00, 0.00, -0.00, -1.00, 391.4, 264.6)">n</text><text xml:space="preserve" font-family="Helvetica-Light,Helvetica" font-size="42.0" fill="#000000" transform="matrix(1.00, 0.00, -0.00, -1.00, 414.8, 264.6)">á</text><text xml:space="preserve" font-family="Helvetica-Light,Helvetica" font-size="42.0" fill="#000000" transform="matrix(1.00, 0.00, -0.00, -1.00, 438.1, 264.6)">v</text><text xml:space="preserve" font-family="Helvetica-Light,Helvetica" font-size="42.0" fill="#000000" transform="matrix(1.00, 0.00, -0.00, -1.00, 459.1, 264.6)">á</text><text xml:space="preserve" font-family="Helvetica-Light,Helvetica" font-size="42.0" fill="#000000" transform="matrix(1.00, 0.00, -0.00, -1.00, 482.5, 264.6)"> </text><text xml:space="preserve" font-family="Helvetica-Light,Helvetica" font-size="42.0" fill="#000000" transform="matrix(1.00, 0.00, -0.00, -1.00, 494.2, 264.6)">a</text><text xml:space="preserve" font-family="Helvetica-Light,Helvetica" font-size="42.0" fill="#000000" transform="matrix(1.00, 0.00, -0.00, -1.00, 517.5, 264.6)">r</text><text xml:space="preserve" font-family="Helvetica-Light,Helvetica" font-size="42.0" fill="#000000" transform="matrix(1.00, 0.00, -0.00, -1.00, 531.5, 264.6)">g</text><text xml:space="preserve" font-family="Helvetica-Light,Helvetica" font-size="42.0" fill="#000000" transform="matrix(1.00, 0.00, -0.00, -1.00, 557.2, 264.6)">u</text><text xml:space="preserve" font-family="Helvetica-Light,Helvetica" font-size="42.0" fill="#000000" transform="matrix(1.00, 0.00, -0.00, -1.00, 580.5, 264.6)">m</text><text xml:space="preserve" font-family="Helvetica-Light,Helvetica" font-size="42.0" fill="#000000" transform="matrix(1.00, 0.00, -0.00, -1.00, 615.5, 264.6)">e</text><text xml:space="preserve" font-family="Helvetica-Light,Helvetica" font-size="42.0" fill="#000000" transform="matrix(1.00, 0.00, -0.00, -1.00, 638.8, 264.6)">n</text><text xml:space="preserve" font-family="Helvetica-Light,Helvetica" font-size="42.0" fill="#000000" transform="matrix(1.00, 0.00, -0.00, -1.00, 662.2, 264.6)">t</text><text xml:space="preserve" font-family="Helvetica-Light,Helvetica" font-size="42.0" fill="#000000" transform="matrix(1.00, 0.00, -0.00, -1.00, 673.9, 264.6)">y</text><text xml:space="preserve" font-family="Helvetica-Light,Helvetica" font-size="42.0" fill="#000000" transform="matrix(1.00, 0.00, -0.00, -1.00, 691.0, 264.6)">,</text><text xml:space="preserve" font-family="Helvetica-Light,Helvetica" font-size="42.0" fill="#000000" transform="matrix(1.00, 0.00, -0.00, -1.00, 702.7, 264.6)"> </text><text xml:space="preserve" font-family="Helvetica-Light,Helvetica" font-size="42.0" fill="#000000" transform="matrix(1.00, 0.00, -0.00, -1.00, 714.4, 264.6)">n</text><text xml:space="preserve" font-family="Helvetica-Light,Helvetica" font-size="42.0" fill="#000000" transform="matrix(1.00, 0.00, -0.00, -1.00, 737.7, 264.6)">á</text><text xml:space="preserve" font-family="Helvetica-Light,Helvetica" font-size="42.0" fill="#000000" transform="matrix(1.00, 0.00, -0.00, -1.00, 761.1, 264.6)">v</text><text xml:space="preserve" font-family="Helvetica-Light,Helvetica" font-size="42.0" fill="#000000" transform="matrix(1.00, 0.00, -0.00, -1.00, 782.1, 264.6)">r</text><text xml:space="preserve" font-family="Helvetica-Light,Helvetica" font-size="42.0" fill="#000000" transform="matrix(1.00, 0.00, -0.00, -1.00, 796.1, 264.6)">a</text><text xml:space="preserve" font-family="Helvetica-Light,Helvetica" font-size="42.0" fill="#000000" transform="matrix(1.00, 0.00, -0.00, -1.00, 819.4, 264.6)">t</text><text xml:space="preserve" font-family="Helvetica-Light,Helvetica" font-size="42.0" fill="#000000" transform="matrix(1.00, 0.00, -0.00, -1.00, 831.1, 264.6)">o</text><text xml:space="preserve" font-family="Helvetica-Light,Helvetica" font-size="42.0" fill="#000000" transform="matrix(1.00, 0.00, -0.00, -1.00, 854.4, 264.6)">v</text><text xml:space="preserve" font-family="Helvetica-Light,Helvetica" font-size="42.0" fill="#000000" transform="matrix(1.00, 0.00, -0.00, -1.00, 875.4, 264.6)">é</text><text xml:space="preserve" font-family="Helvetica-Light,Helvetica" font-size="42.0" fill="#000000" transform="matrix(1.00, 0.00, -0.00, -1.00, 898.8, 264.6)"> </text><text xml:space="preserve" font-family="Helvetica-Light,Helvetica" font-size="42.0" fill="#000000" transform="matrix(1.00, 0.00, -0.00, -1.00, 221.0, 214.6)">h</text><text xml:space="preserve" font-family="Helvetica-Light,Helvetica" font-size="42.0" fill="#000000" transform="matrix(1.00, 0.00, -0.00, -1.00, 244.4, 214.6)">o</text><text xml:space="preserve" font-family="Helvetica-Light,Helvetica" font-size="42.0" fill="#000000" transform="matrix(1.00, 0.00, -0.00, -1.00, 267.7, 214.6)">d</text><text xml:space="preserve" font-family="Helvetica-Light,Helvetica" font-size="42.0" fill="#000000" transform="matrix(1.00, 0.00, -0.00, -1.00, 293.4, 214.6)">n</text><text xml:space="preserve" font-family="Helvetica-Light,Helvetica" font-size="42.0" fill="#000000" transform="matrix(1.00, 0.00, -0.00, -1.00, 316.8, 214.6)">o</text><text xml:space="preserve" font-family="Helvetica-Light,Helvetica" font-size="42.0" fill="#000000" transform="matrix(1.00, 0.00, -0.00, -1.00, 340.1, 214.6)">t</text><text xml:space="preserve" font-family="Helvetica-Light,Helvetica" font-size="42.0" fill="#000000" transform="matrix(1.00, 0.00, -0.00, -1.00, 351.8, 214.6)">y</text><text xml:space="preserve" font-family="Helvetica-Light,Helvetica" font-size="42.0" fill="#000000" transform="matrix(1.00, 0.00, -0.00, -1.00, 368.9, 214.6)">,</text><text xml:space="preserve" font-family="Helvetica-Light,Helvetica" font-size="42.0" fill="#000000" transform="matrix(1.00, 0.00, -0.00, -1.00, 380.6, 214.6)"> </text><text xml:space="preserve" font-family="Helvetica-Light,Helvetica" font-size="42.0" fill="#000000" transform="matrix(1.00, 0.00, -0.00, -1.00, 392.3, 214.6)">v</text><text xml:space="preserve" font-family="Helvetica-Light,Helvetica" font-size="42.0" fill="#000000" transform="matrix(1.00, 0.00, -0.00, -1.00, 413.3, 214.6)">y</text><text xml:space="preserve" font-family="Helvetica-Light,Helvetica" font-size="42.0" fill="#000000" transform="matrix(1.00, 0.00, -0.00, -1.00, 434.3, 214.6)">j</text><text xml:space="preserve" font-family="Helvetica-Light,Helvetica" font-size="42.0" fill="#000000" transform="matrix(1.00, 0.00, -0.00, -1.00, 443.6, 214.6)">í</text><text xml:space="preserve" font-family="Helvetica-Light,Helvetica" font-size="42.0" fill="#000000" transform="matrix(1.00, 0.00, -0.00, -1.00, 452.9, 214.6)">m</text><text xml:space="preserve" font-family="Helvetica-Light,Helvetica" font-size="42.0" fill="#000000" transform="matrix(1.00, 0.00, -0.00, -1.00, 487.9, 214.6)">k</text><text xml:space="preserve" font-family="Helvetica-Light,Helvetica" font-size="42.0" fill="#000000" transform="matrix(1.00, 0.00, -0.00, -1.00, 508.9, 214.6)">y</text><text xml:space="preserve" font-family="Helvetica-Light,Helvetica" font-size="42.0" fill="#000000" transform="matrix(1.00, 0.00, -0.00, -1.00, 526.0, 214.6)">,</text><text xml:space="preserve" font-family="Helvetica-Light,Helvetica" font-size="42.0" fill="#000000" transform="matrix(1.00, 0.00, -0.00, -1.00, 537.7, 214.6)"> </text><text xml:space="preserve" font-family="Helvetica-Light,Helvetica" font-size="42.0" fill="#000000" transform="matrix(1.00, 0.00, -0.00, -1.00, 549.4, 214.6)">e</text><text xml:space="preserve" font-family="Helvetica-Light,Helvetica" font-size="42.0" fill="#000000" transform="matrix(1.00, 0.00, -0.00, -1.00, 572.7, 214.6)">t</text><text xml:space="preserve" font-family="Helvetica-Light,Helvetica" font-size="42.0" fill="#000000" transform="matrix(1.00, 0.00, -0.00, -1.00, 584.4, 214.6)">c</text><text xml:space="preserve" font-family="Helvetica-Light,Helvetica" font-size="42.0" fill="#000000" transform="matrix(1.00, 0.00, -0.00, -1.00, 607.8, 214.6)">.</text><text xml:space="preserve" font-family="Helvetica-Light,Helvetica" font-size="42.0" fill="#000000" transform="matrix(1.00, 0.00, -0.00, -1.00, 619.4, 214.6)"> </text><image xlink:href="../../DAA1CE98-60D5-4253-8D04-2ED59D80D482/assets/2BDD2B3C826D2EA307C0199CDD88384E.png" width="80.00" height="80.00" transform="matrix(0.24, 0.00, -0.00, -0.24, 162.7, 167.3)"></image><text xml:space="preserve" font-family="Helvetica-Light,Helvetica" font-size="42.0" fill="#000000" transform="matrix(1.00, 0.00, -0.00, -1.00, 221.0, 146.5)">z</text><text xml:space="preserve" font-family="Helvetica-Light,Helvetica" font-size="42.0" fill="#000000" transform="matrix(1.00, 0.00, -0.00, -1.00, 242.0, 146.5)">í</text><text xml:space="preserve" font-family="Helvetica-Light,Helvetica" font-size="42.0" fill="#000000" transform="matrix(1.00, 0.00, -0.00, -1.00, 251.4, 146.5)">s</text><text xml:space="preserve" font-family="Helvetica-Light,Helvetica" font-size="42.0" fill="#000000" transform="matrix(1.00, 0.00, -0.00, -1.00, 272.4, 146.5)">k</text><text xml:space="preserve" font-family="Helvetica-Light,Helvetica" font-size="42.0" fill="#000000" transform="matrix(1.00, 0.00, -0.00, -1.00, 293.4, 146.5)">á</text><text xml:space="preserve" font-family="Helvetica-Light,Helvetica" font-size="42.0" fill="#000000" transform="matrix(1.00, 0.00, -0.00, -1.00, 316.7, 146.5)">n</text><text xml:space="preserve" font-family="Helvetica-Light,Helvetica" font-size="42.0" fill="#000000" transform="matrix(1.00, 0.00, -0.00, -1.00, 340.1, 146.5)">í</text><text xml:space="preserve" font-family="Helvetica-Light,Helvetica" font-size="42.0" fill="#000000" transform="matrix(1.00, 0.00, -0.00, -1.00, 349.4, 146.5)"> </text><text xml:space="preserve" font-family="Helvetica-Light,Helvetica" font-size="42.0" fill="#000000" transform="matrix(1.00, 0.00, -0.00, -1.00, 361.1, 146.5)">i</text><text xml:space="preserve" font-family="Helvetica-Light,Helvetica" font-size="42.0" fill="#000000" transform="matrix(1.00, 0.00, -0.00, -1.00, 370.4, 146.5)">n</text><text xml:space="preserve" font-family="Helvetica-Light,Helvetica" font-size="42.0" fill="#000000" transform="matrix(1.00, 0.00, -0.00, -1.00, 393.7, 146.5)">f</text><text xml:space="preserve" font-family="Helvetica-Light,Helvetica" font-size="42.0" fill="#000000" transform="matrix(1.00, 0.00, -0.00, -1.00, 405.4, 146.5)">o</text><text xml:space="preserve" font-family="Helvetica-Light,Helvetica" font-size="42.0" fill="#000000" transform="matrix(1.00, 0.00, -0.00, -1.00, 428.8, 146.5)">r</text><text xml:space="preserve" font-family="Helvetica-Light,Helvetica" font-size="42.0" fill="#000000" transform="matrix(1.00, 0.00, -0.00, -1.00, 443.5, 146.5)">m</text><text xml:space="preserve" font-family="Helvetica-Light,Helvetica" font-size="42.0" fill="#000000" transform="matrix(1.00, 0.00, -0.00, -1.00, 478.5, 146.5)">a</text><text xml:space="preserve" font-family="Helvetica-Light,Helvetica" font-size="42.0" fill="#000000" transform="matrix(1.00, 0.00, -0.00, -1.00, 501.8, 146.5)">c</text><text xml:space="preserve" font-family="Helvetica-Light,Helvetica" font-size="42.0" fill="#000000" transform="matrix(1.00, 0.00, -0.00, -1.00, 525.2, 146.5)">í</text><text xml:space="preserve" font-family="Helvetica-Light,Helvetica" font-size="42.0" fill="#000000" transform="matrix(1.00, 0.00, -0.00, -1.00, 534.5, 146.5)"> </text><text xml:space="preserve" font-family="Helvetica-Light,Helvetica" font-size="42.0" fill="#000000" transform="matrix(1.00, 0.00, -0.00, -1.00, 546.2, 146.5)">o</text><text xml:space="preserve" font-family="Helvetica-Light,Helvetica" font-size="42.0" fill="#000000" transform="matrix(1.00, 0.00, -0.00, -1.00, 569.5, 146.5)"> </text><text xml:space="preserve" font-family="Helvetica-Light,Helvetica" font-size="42.0" fill="#000000" transform="matrix(1.00, 0.00, -0.00, -1.00, 581.2, 146.5)">p</text><text xml:space="preserve" font-family="Helvetica-Light,Helvetica" font-size="42.0" fill="#000000" transform="matrix(1.00, 0.00, -0.00, -1.00, 606.9, 146.5)">o</text><text xml:space="preserve" font-family="Helvetica-Light,Helvetica" font-size="42.0" fill="#000000" transform="matrix(1.00, 0.00, -0.00, -1.00, 630.2, 146.5)">č</text><text xml:space="preserve" font-family="Helvetica-Light,Helvetica" font-size="42.0" fill="#000000" transform="matrix(1.00, 0.00, -0.00, -1.00, 653.6, 146.5)">t</text><text xml:space="preserve" font-family="Helvetica-Light,Helvetica" font-size="42.0" fill="#000000" transform="matrix(1.00, 0.00, -0.00, -1.00, 665.3, 146.5)">u</text><text xml:space="preserve" font-family="Helvetica-Light,Helvetica" font-size="42.0" fill="#000000" transform="matrix(1.00, 0.00, -0.00, -1.00, 688.6, 146.5)"> </text><text xml:space="preserve" font-family="Helvetica-Light,Helvetica" font-size="42.0" fill="#000000" transform="matrix(1.00, 0.00, -0.00, -1.00, 700.3, 146.5)">v</text><text xml:space="preserve" font-family="Helvetica-Light,Helvetica" font-size="42.0" fill="#000000" transform="matrix(1.00, 0.00, -0.00, -1.00, 721.3, 146.5)">o</text><text xml:space="preserve" font-family="Helvetica-Light,Helvetica" font-size="42.0" fill="#000000" transform="matrix(1.00, 0.00, -0.00, -1.00, 744.6, 146.5)">l</text><text xml:space="preserve" font-family="Helvetica-Light,Helvetica" font-size="42.0" fill="#000000" transform="matrix(1.00, 0.00, -0.00, -1.00, 754.0, 146.5)">á</text><text xml:space="preserve" font-family="Helvetica-Light,Helvetica" font-size="42.0" fill="#000000" transform="matrix(1.00, 0.00, -0.00, -1.00, 777.3, 146.5)">n</text><text xml:space="preserve" font-family="Helvetica-Light,Helvetica" font-size="42.0" fill="#000000" transform="matrix(1.00, 0.00, -0.00, -1.00, 800.7, 146.5)">í</text><text xml:space="preserve" font-family="Helvetica-Light,Helvetica" font-size="42.0" fill="#000000" transform="matrix(1.00, 0.00, -0.00, -1.00, 810.0, 146.5)"> </text><text xml:space="preserve" font-family="Helvetica-Light,Helvetica" font-size="42.0" fill="#000000" transform="matrix(1.00, 0.00, -0.00, -1.00, 821.7, 146.5)">a</text><text xml:space="preserve" font-family="Helvetica-Light,Helvetica" font-size="42.0" fill="#000000" transform="matrix(1.00, 0.00, -0.00, -1.00, 845.0, 146.5)"> </text><text xml:space="preserve" font-family="Helvetica-Light,Helvetica" font-size="42.0" fill="#000000" transform="matrix(1.00, 0.00, -0.00, -1.00, 856.7, 146.5)">s</text><text xml:space="preserve" font-family="Helvetica-Light,Helvetica" font-size="42.0" fill="#000000" transform="matrix(1.00, 0.00, -0.00, -1.00, 877.7, 146.5)"> </text><text xml:space="preserve" font-family="Helvetica-Light,Helvetica" font-size="42.0" fill="#000000" transform="matrix(1.00, 0.00, -0.00, -1.00, 221.0, 96.5)">j</text><text xml:space="preserve" font-family="Helvetica-Light,Helvetica" font-size="42.0" fill="#000000" transform="matrix(1.00, 0.00, -0.00, -1.00, 230.4, 96.5)">a</text><text xml:space="preserve" font-family="Helvetica-Light,Helvetica" font-size="42.0" fill="#000000" transform="matrix(1.00, 0.00, -0.00, -1.00, 253.7, 96.5)">k</text><text xml:space="preserve" font-family="Helvetica-Light,Helvetica" font-size="42.0" fill="#000000" transform="matrix(1.00, 0.00, -0.00, -1.00, 274.7, 96.5)">ý</text><text xml:space="preserve" font-family="Helvetica-Light,Helvetica" font-size="42.0" fill="#000000" transform="matrix(1.00, 0.00, -0.00, -1.00, 295.7, 96.5)">m</text><text xml:space="preserve" font-family="Helvetica-Light,Helvetica" font-size="42.0" fill="#000000" transform="matrix(1.00, 0.00, -0.00, -1.00, 330.7, 96.5)">i</text><text xml:space="preserve" font-family="Helvetica-Light,Helvetica" font-size="42.0" fill="#000000" transform="matrix(1.00, 0.00, -0.00, -1.00, 340.0, 96.5)"> </text><text xml:space="preserve" font-family="Helvetica-Light,Helvetica" font-size="42.0" fill="#000000" transform="matrix(1.00, 0.00, -0.00, -1.00, 351.7, 96.5)">p</text><text xml:space="preserve" font-family="Helvetica-Light,Helvetica" font-size="42.0" fill="#000000" transform="matrix(1.00, 0.00, -0.00, -1.00, 377.4, 96.5)">a</text><text xml:space="preserve" font-family="Helvetica-Light,Helvetica" font-size="42.0" fill="#000000" transform="matrix(1.00, 0.00, -0.00, -1.00, 400.7, 96.5)">r</text><text xml:space="preserve" font-family="Helvetica-Light,Helvetica" font-size="42.0" fill="#000000" transform="matrix(1.00, 0.00, -0.00, -1.00, 414.7, 96.5)">a</text><text xml:space="preserve" font-family="Helvetica-Light,Helvetica" font-size="42.0" fill="#000000" transform="matrix(1.00, 0.00, -0.00, -1.00, 438.0, 96.5)">m</text><text xml:space="preserve" font-family="Helvetica-Light,Helvetica" font-size="42.0" fill="#000000" transform="matrix(1.00, 0.00, -0.00, -1.00, 473.0, 96.5)">e</text><text xml:space="preserve" font-family="Helvetica-Light,Helvetica" font-size="42.0" fill="#000000" transform="matrix(1.00, 0.00, -0.00, -1.00, 496.4, 96.5)">t</text><text xml:space="preserve" font-family="Helvetica-Light,Helvetica" font-size="42.0" fill="#000000" transform="matrix(1.00, 0.00, -0.00, -1.00, 508.1, 96.5)">r</text><text xml:space="preserve" font-family="Helvetica-Light,Helvetica" font-size="42.0" fill="#000000" transform="matrix(1.00, 0.00, -0.00, -1.00, 522.8, 96.5)">y</text></g></svg>