<?xml version="1.0" encoding="UTF-8" standalone="no"?><svg xmlns="http://www.w3.org/2000/svg" xmlns:xlink="http://www.w3.org/1999/xlink" clip-rule="evenodd" stroke-miterlimit="10" viewBox="0 0 327 83"><desc>SVG generated by Keynote</desc><defs></defs><g transform="matrix(1.00, 0.00, -0.00, -1.00, 0.0, 83.0)"><image xlink:href="../../DAA1CE98-60D5-4253-8D04-2ED59D80D482/assets/2BDD2B3C826D2EA307C0199CDD88384E.png" width="80.00" height="80.00" transform="matrix(0.23, 0.00, -0.00, -0.23, 0.2, 72.5)"></image><text xml:space="preserve" font-family="Helvetica-Light,Helvetica" font-size="41.0" fill="#000000" transform="matrix(1.00, 0.00, -0.00, -1.00, 58.6, 52.2)">B</text><text xml:space="preserve" font-family="Helvetica-Light,Helvetica" font-size="41.0" fill="#000000" transform="matrix(1.00, 0.00, -0.00, -1.00, 85.9, 52.2)">r</text><text xml:space="preserve" font-family="Helvetica-Light,Helvetica" font-size="41.0" fill="#000000" transform="matrix(1.00, 0.00, -0.00, -1.00, 98.8, 52.2)">o</text><text xml:space="preserve" font-family="Helvetica-Light,Helvetica" font-size="41.0" fill="#000000" transform="matrix(1.00, 0.00, -0.00, -1.00, 121.6, 52.2)">w</text><text xml:space="preserve" font-family="Helvetica-Light,Helvetica" font-size="41.0" fill="#000000" transform="matrix(1.00, 0.00, -0.00, -1.00, 151.2, 52.2)">s</text><text xml:space="preserve" font-family="Helvetica-Light,Helvetica" font-size="41.0" fill="#000000" transform="matrix(1.00, 0.00, -0.00, -1.00, 171.7, 52.2)">e</text><text xml:space="preserve" font-family="Helvetica-Light,Helvetica" font-size="41.0" fill="#000000" transform="matrix(1.00, 0.00, -0.00, -1.00, 194.5, 52.2)">r</text><text xml:space="preserve" font-family="Helvetica-Light,Helvetica" font-size="41.0" fill="#000000" transform="matrix(1.00, 0.00, -0.00, -1.00, 207.4, 52.2)">e</text><text xml:space="preserve" font-family="Helvetica-Light,Helvetica" font-size="41.0" fill="#000000" transform="matrix(1.00, 0.00, -0.00, -1.00, 230.2, 52.2)">v</text><text xml:space="preserve" font-family="Helvetica-Light,Helvetica" font-size="41.0" fill="#000000" transform="matrix(1.00, 0.00, -0.00, -1.00, 250.7, 52.2)">e</text><text xml:space="preserve" font-family="Helvetica-Light,Helvetica" font-size="41.0" fill="#000000" transform="matrix(1.00, 0.00, -0.00, -1.00, 273.5, 52.2)">n</text><text xml:space="preserve" font-family="Helvetica-Light,Helvetica" font-size="41.0" fill="#000000" transform="matrix(1.00, 0.00, -0.00, -1.00, 296.3, 52.2)">t</text><text xml:space="preserve" font-family="Helvetica-Light,Helvetica" font-size="41.0" fill="#000000" transform="matrix(1.00, 0.00, -0.00, -1.00, 307.7, 52.2)"> </text><image xlink:href="../../DAA1CE98-60D5-4253-8D04-2ED59D80D482/assets/2BDD2B3C826D2EA307C0199CDD88384E.png" width="80.00" height="80.00" transform="matrix(0.23, 0.00, -0.00, -0.23, 0.2, 23.5)"></image><text xml:space="preserve" font-family="Helvetica-Light,Helvetica" font-size="41.0" fill="#000000" transform="matrix(1.00, 0.00, -0.00, -1.00, 58.6, 3.2)">W</text><text xml:space="preserve" font-family="Helvetica-Light,Helvetica" font-size="41.0" fill="#000000" transform="matrix(1.00, 0.00, -0.00, -1.00, 94.3, 3.2)">e</text><text xml:space="preserve" font-family="Helvetica-Light,Helvetica" font-size="41.0" fill="#000000" transform="matrix(1.00, 0.00, -0.00, -1.00, 117.1, 3.2)">b</text><text xml:space="preserve" font-family="Helvetica-Light,Helvetica" font-size="41.0" fill="#000000" transform="matrix(1.00, 0.00, -0.00, -1.00, 142.1, 3.2)">d</text><text xml:space="preserve" font-family="Helvetica-Light,Helvetica" font-size="41.0" fill="#000000" transform="matrix(1.00, 0.00, -0.00, -1.00, 167.2, 3.2)">r</text><text xml:space="preserve" font-family="Helvetica-Light,Helvetica" font-size="41.0" fill="#000000" transform="matrix(1.00, 0.00, -0.00, -1.00, 180.8, 3.2)">i</text><text xml:space="preserve" font-family="Helvetica-Light,Helvetica" font-size="41.0" fill="#000000" transform="matrix(1.00, 0.00, -0.00, -1.00, 189.9, 3.2)">v</text><text xml:space="preserve" font-family="Helvetica-Light,Helvetica" font-size="41.0" fill="#000000" transform="matrix(1.00, 0.00, -0.00, -1.00, 210.4, 3.2)">e</text><text xml:space="preserve" font-family="Helvetica-Light,Helvetica" font-size="41.0" fill="#000000" transform="matrix(1.00, 0.00, -0.00, -1.00, 233.2, 3.2)">r</text><text xml:space="preserve" font-family="Helvetica-Light,Helvetica" font-size="41.0" fill="#000000" transform="matrix(1.00, 0.00, -0.00, -1.00, 246.9, 3.2)">C</text><text xml:space="preserve" font-family="Helvetica-Light,Helvetica" font-size="41.0" fill="#000000" transform="matrix(1.00, 0.00, -0.00, -1.00, 276.5, 3.2)">S</text><text xml:space="preserve" font-family="Helvetica-Light,Helvetica" font-size="41.0" fill="#000000" transform="matrix(1.00, 0.00, -0.00, -1.00, 301.5, 3.2)">S</text></g></svg>