<?xml version="1.0" encoding="UTF-8" standalone="no"?><svg xmlns="http://www.w3.org/2000/svg" xmlns:xlink="http://www.w3.org/1999/xlink" clip-rule="evenodd" stroke-miterlimit="10" viewBox="0 0 1024 768"><desc>SVG generated by Keynote</desc><defs></defs><g transform="matrix(1.00, 0.00, -0.00, -1.00, 0.0, 768.0)"><path d="M 0.0 768.0 L 1024.0 768.0 L 1024.0 0.0 L 0.0 0.0 Z M 0.0 768.0 " fill="#FEFFFF"></path><text xml:space="preserve" font-family="Helvetica-Light,Helvetica" font-size="80.0" fill="#8948B3" transform="matrix(1.00, 0.00, -0.00, -1.00, 291.9, 656.4)">S</text><text xml:space="preserve" font-family="Helvetica-Light,Helvetica" font-size="80.0" fill="#8948B3" transform="matrix(1.00, 0.00, -0.00, -1.00, 340.8, 656.4)">e</text><text xml:space="preserve" font-family="Helvetica-Light,Helvetica" font-size="80.0" fill="#8948B3" transform="matrix(1.00, 0.00, -0.00, -1.00, 385.3, 656.4)">l</text><text xml:space="preserve" font-family="Helvetica-Light,Helvetica" font-size="80.0" fill="#8948B3" transform="matrix(1.00, 0.00, -0.00, -1.00, 403.0, 656.4)">e</text><text xml:space="preserve" font-family="Helvetica-Light,Helvetica" font-size="80.0" fill="#8948B3" transform="matrix(1.00, 0.00, -0.00, -1.00, 447.5, 656.4)">n</text><text xml:space="preserve" font-family="Helvetica-Light,Helvetica" font-size="80.0" fill="#8948B3" transform="matrix(1.00, 0.00, -0.00, -1.00, 492.0, 656.4)">i</text><text xml:space="preserve" font-family="Helvetica-Light,Helvetica" font-size="80.0" fill="#8948B3" transform="matrix(1.00, 0.00, -0.00, -1.00, 509.8, 656.4)">u</text><text xml:space="preserve" font-family="Helvetica-Light,Helvetica" font-size="80.0" fill="#8948B3" transform="matrix(1.00, 0.00, -0.00, -1.00, 554.2, 656.4)">m</text><text xml:space="preserve" font-family="Helvetica-Light,Helvetica" font-size="80.0" fill="#8948B3" transform="matrix(1.00, 0.00, -0.00, -1.00, 620.9, 656.4)"> </text><text xml:space="preserve" font-family="Helvetica-Light,Helvetica" font-size="80.0" fill="#8948B3" transform="matrix(1.00, 0.00, -0.00, -1.00, 643.1, 656.4)">2</text><text xml:space="preserve" font-family="Helvetica-Light,Helvetica" font-size="80.0" fill="#8948B3" transform="matrix(1.00, 0.00, -0.00, -1.00, 687.6, 656.4)"> </text><text xml:space="preserve" font-family="Helvetica-Light,Helvetica" font-size="80.0" fill="#8948B3" transform="matrix(1.00, 0.00, -0.00, -1.00, 709.8, 656.4)">/</text><text xml:space="preserve" font-family="Helvetica-Light,Helvetica" font-size="80.0" fill="#8948B3" transform="matrix(1.00, 0.00, -0.00, -1.00, 732.1, 656.4)"> </text><text xml:space="preserve" font-family="Helvetica-Light,Helvetica" font-size="80.0" fill="#8948B3" transform="matrix(1.00, 0.00, -0.00, -1.00, 328.3, 560.4)">W</text><text xml:space="preserve" font-family="Helvetica-Light,Helvetica" font-size="80.0" fill="#8948B3" transform="matrix(1.00, 0.00, -0.00, -1.00, 398.0, 560.4)">e</text><text xml:space="preserve" font-family="Helvetica-Light,Helvetica" font-size="80.0" fill="#8948B3" transform="matrix(1.00, 0.00, -0.00, -1.00, 442.4, 560.4)">b</text><text xml:space="preserve" font-family="Helvetica-Light,Helvetica" font-size="80.0" fill="#8948B3" transform="matrix(1.00, 0.00, -0.00, -1.00, 491.3, 560.4)">d</text><text xml:space="preserve" font-family="Helvetica-Light,Helvetica" font-size="80.0" fill="#8948B3" transform="matrix(1.00, 0.00, -0.00, -1.00, 540.2, 560.4)">r</text><text xml:space="preserve" font-family="Helvetica-Light,Helvetica" font-size="80.0" fill="#8948B3" transform="matrix(1.00, 0.00, -0.00, -1.00, 566.8, 560.4)">i</text><text xml:space="preserve" font-family="Helvetica-Light,Helvetica" font-size="80.0" fill="#8948B3" transform="matrix(1.00, 0.00, -0.00, -1.00, 584.6, 560.4)">v</text><text xml:space="preserve" font-family="Helvetica-Light,Helvetica" font-size="80.0" fill="#8948B3" transform="matrix(1.00, 0.00, -0.00, -1.00, 624.6, 560.4)">e</text><text xml:space="preserve" font-family="Helvetica-Light,Helvetica" font-size="80.0" fill="#8948B3" transform="matrix(1.00, 0.00, -0.00, -1.00, 669.1, 560.4)">r</text><image xlink:href="../../DAA1CE98-60D5-4253-8D04-2ED59D80D482/assets/2BDD2B3C826D2EA307C0199CDD88384E.png" width="80.00" height="80.00" transform="matrix(0.34, 0.00, -0.00, -0.34, 104.0, 475.5)"></image><text xml:space="preserve" font-family="Helvetica-Light,Helvetica" font-size="60.0" fill="#000000" transform="matrix(1.00, 0.00, -0.00, -1.00, 162.3, 445.8)">P</text><text xml:space="preserve" font-family="Helvetica-Light,Helvetica" font-size="60.0" fill="#000000" transform="matrix(1.00, 0.00, -0.00, -1.00, 199.0, 445.8)">H</text><text xml:space="preserve" font-family="Helvetica-Light,Helvetica" font-size="60.0" fill="#000000" transform="matrix(1.00, 0.00, -0.00, -1.00, 242.3, 445.8)">P</text><text xml:space="preserve" font-family="Helvetica-Light,Helvetica" font-size="60.0" fill="#000000" transform="matrix(1.00, 0.00, -0.00, -1.00, 279.0, 445.8)"> </text><text xml:space="preserve" font-family="Helvetica-Light,Helvetica" font-size="60.0" fill="#000000" transform="matrix(1.00, 0.00, -0.00, -1.00, 295.7, 445.8)">W</text><text xml:space="preserve" font-family="Helvetica-Light,Helvetica" font-size="60.0" fill="#000000" transform="matrix(1.00, 0.00, -0.00, -1.00, 347.9, 445.8)">e</text><text xml:space="preserve" font-family="Helvetica-Light,Helvetica" font-size="60.0" fill="#000000" transform="matrix(1.00, 0.00, -0.00, -1.00, 381.3, 445.8)">b</text><text xml:space="preserve" font-family="Helvetica-Light,Helvetica" font-size="60.0" fill="#000000" transform="matrix(1.00, 0.00, -0.00, -1.00, 417.9, 445.8)">d</text><text xml:space="preserve" font-family="Helvetica-Light,Helvetica" font-size="60.0" fill="#000000" transform="matrix(1.00, 0.00, -0.00, -1.00, 454.6, 445.8)">r</text><text xml:space="preserve" font-family="Helvetica-Light,Helvetica" font-size="60.0" fill="#000000" transform="matrix(1.00, 0.00, -0.00, -1.00, 474.6, 445.8)">i</text><text xml:space="preserve" font-family="Helvetica-Light,Helvetica" font-size="60.0" fill="#000000" transform="matrix(1.00, 0.00, -0.00, -1.00, 487.9, 445.8)">v</text><text xml:space="preserve" font-family="Helvetica-Light,Helvetica" font-size="60.0" fill="#000000" transform="matrix(1.00, 0.00, -0.00, -1.00, 517.9, 445.8)">e</text><text xml:space="preserve" font-family="Helvetica-Light,Helvetica" font-size="60.0" fill="#000000" transform="matrix(1.00, 0.00, -0.00, -1.00, 551.3, 445.8)">r</text><image xlink:href="../../5FE609C0-7C01-470C-9586-D2A4A5B1AB40/assets/3CA7A82EC2851A143E46DFCE838E10FA.png" width="650.00" height="102.00" transform="matrix(1.00, 0.00, -0.00, -1.00, 86.0, 339.0)"></image></g></svg>