<?xml version="1.0" encoding="UTF-8" standalone="no"?><svg xmlns="http://www.w3.org/2000/svg" xmlns:xlink="http://www.w3.org/1999/xlink" clip-rule="evenodd" stroke-miterlimit="10" viewBox="0 0 1024 768"><desc>SVG generated by Keynote</desc><defs></defs><g transform="matrix(1.00, 0.00, -0.00, -1.00, 0.0, 768.0)"><path d="M 0.0 768.0 L 1024.0 768.0 L 1024.0 0.0 L 0.0 0.0 Z M 0.0 768.0 " fill="#FEFFFF"></path><text xml:space="preserve" font-family="Helvetica-Light,Helvetica" font-size="63.0" fill="#000000" transform="matrix(1.00, 0.00, -0.00, -1.00, 178.9, 485.0)">R</text><text xml:space="preserve" font-family="Helvetica-Light,Helvetica" font-size="63.0" fill="#000000" transform="matrix(1.00, 0.00, -0.00, -1.00, 220.9, 485.0)">a</text><text xml:space="preserve" font-family="Helvetica-Light,Helvetica" font-size="63.0" fill="#000000" transform="matrix(1.00, 0.00, -0.00, -1.00, 256.0, 485.0)">d</text><text xml:space="preserve" font-family="Helvetica-Light,Helvetica" font-size="63.0" fill="#000000" transform="matrix(1.00, 0.00, -0.00, -1.00, 294.5, 485.0)">i</text><text xml:space="preserve" font-family="Helvetica-Light,Helvetica" font-size="63.0" fill="#000000" transform="matrix(1.00, 0.00, -0.00, -1.00, 308.5, 485.0)">m</text><text xml:space="preserve" font-family="Helvetica-Light,Helvetica" font-size="63.0" fill="#000000" transform="matrix(1.00, 0.00, -0.00, -1.00, 360.9, 485.0)"> </text><text xml:space="preserve" font-family="Helvetica-Light,Helvetica" font-size="63.0" fill="#000000" transform="matrix(1.00, 0.00, -0.00, -1.00, 378.5, 485.0)">D</text><text xml:space="preserve" font-family="Helvetica-Light,Helvetica" font-size="63.0" fill="#000000" transform="matrix(1.00, 0.00, -0.00, -1.00, 423.9, 485.0)">a</text><text xml:space="preserve" font-family="Helvetica-Light,Helvetica" font-size="63.0" fill="#000000" transform="matrix(1.00, 0.00, -0.00, -1.00, 459.0, 485.0)">n</text><text xml:space="preserve" font-family="Helvetica-Light,Helvetica" font-size="63.0" fill="#000000" transform="matrix(1.00, 0.00, -0.00, -1.00, 494.0, 485.0)">i</text><text xml:space="preserve" font-family="Helvetica-Light,Helvetica" font-size="63.0" fill="#000000" transform="matrix(1.00, 0.00, -0.00, -1.00, 508.0, 485.0)">e</text><text xml:space="preserve" font-family="Helvetica-Light,Helvetica" font-size="63.0" fill="#000000" transform="matrix(1.00, 0.00, -0.00, -1.00, 543.0, 485.0)">l</text><text xml:space="preserve" font-family="Helvetica-Light,Helvetica" font-size="63.0" fill="#000000" transform="matrix(1.00, 0.00, -0.00, -1.00, 557.0, 485.0)"> </text><text xml:space="preserve" font-family="Helvetica-Light,Helvetica" font-size="63.0" fill="#000000" transform="matrix(1.00, 0.00, -0.00, -1.00, 574.5, 485.0)">P</text><text xml:space="preserve" font-family="Helvetica-Light,Helvetica" font-size="63.0" fill="#000000" transform="matrix(1.00, 0.00, -0.00, -1.00, 613.0, 485.0)">รก</text><text xml:space="preserve" font-family="Helvetica-Light,Helvetica" font-size="63.0" fill="#000000" transform="matrix(1.00, 0.00, -0.00, -1.00, 648.0, 485.0)">n</text><text xml:space="preserve" font-family="Helvetica-Light,Helvetica" font-size="63.0" fill="#000000" transform="matrix(1.00, 0.00, -0.00, -1.00, 683.1, 485.0)">e</text><text xml:space="preserve" font-family="Helvetica-Light,Helvetica" font-size="63.0" fill="#000000" transform="matrix(1.00, 0.00, -0.00, -1.00, 718.1, 485.0)">k</text><text xml:space="preserve" font-family="Helvetica-Light,Helvetica" font-size="41.0" fill="#000000" transform="matrix(1.00, 0.00, -0.00, -1.00, 178.9, 422.9)">T</text><text xml:space="preserve" font-family="Helvetica-Light,Helvetica" font-size="41.0" fill="#000000" transform="matrix(1.00, 0.00, -0.00, -1.00, 197.2, 422.9)">e</text><text xml:space="preserve" font-family="Helvetica-Light,Helvetica" font-size="41.0" fill="#000000" transform="matrix(1.00, 0.00, -0.00, -1.00, 220.0, 422.9)">s</text><text xml:space="preserve" font-family="Helvetica-Light,Helvetica" font-size="41.0" fill="#000000" transform="matrix(1.00, 0.00, -0.00, -1.00, 240.5, 422.9)">t</text><text xml:space="preserve" font-family="Helvetica-Light,Helvetica" font-size="41.0" fill="#000000" transform="matrix(1.00, 0.00, -0.00, -1.00, 251.9, 422.9)"> </text><text xml:space="preserve" font-family="Helvetica-Light,Helvetica" font-size="41.0" fill="#000000" transform="matrix(1.00, 0.00, -0.00, -1.00, 263.3, 422.9)">A</text><text xml:space="preserve" font-family="Helvetica-Light,Helvetica" font-size="41.0" fill="#000000" transform="matrix(1.00, 0.00, -0.00, -1.00, 290.6, 422.9)">u</text><text xml:space="preserve" font-family="Helvetica-Light,Helvetica" font-size="41.0" fill="#000000" transform="matrix(1.00, 0.00, -0.00, -1.00, 313.4, 422.9)">t</text><text xml:space="preserve" font-family="Helvetica-Light,Helvetica" font-size="41.0" fill="#000000" transform="matrix(1.00, 0.00, -0.00, -1.00, 324.8, 422.9)">o</text><text xml:space="preserve" font-family="Helvetica-Light,Helvetica" font-size="41.0" fill="#000000" transform="matrix(1.00, 0.00, -0.00, -1.00, 347.6, 422.9)">m</text><text xml:space="preserve" font-family="Helvetica-Light,Helvetica" font-size="41.0" fill="#000000" transform="matrix(1.00, 0.00, -0.00, -1.00, 381.8, 422.9)">a</text><text xml:space="preserve" font-family="Helvetica-Light,Helvetica" font-size="41.0" fill="#000000" transform="matrix(1.00, 0.00, -0.00, -1.00, 404.6, 422.9)">t</text><text xml:space="preserve" font-family="Helvetica-Light,Helvetica" font-size="41.0" fill="#000000" transform="matrix(1.00, 0.00, -0.00, -1.00, 415.9, 422.9)">i</text><text xml:space="preserve" font-family="Helvetica-Light,Helvetica" font-size="41.0" fill="#000000" transform="matrix(1.00, 0.00, -0.00, -1.00, 425.1, 422.9)">o</text><text xml:space="preserve" font-family="Helvetica-Light,Helvetica" font-size="41.0" fill="#000000" transform="matrix(1.00, 0.00, -0.00, -1.00, 447.8, 422.9)">n</text><text xml:space="preserve" font-family="Helvetica-Light,Helvetica" font-size="41.0" fill="#000000" transform="matrix(1.00, 0.00, -0.00, -1.00, 470.6, 422.9)"> </text><text xml:space="preserve" font-family="Helvetica-Light,Helvetica" font-size="41.0" fill="#000000" transform="matrix(1.00, 0.00, -0.00, -1.00, 482.0, 422.9)">E</text><text xml:space="preserve" font-family="Helvetica-Light,Helvetica" font-size="41.0" fill="#000000" transform="matrix(1.00, 0.00, -0.00, -1.00, 507.1, 422.9)">n</text><text xml:space="preserve" font-family="Helvetica-Light,Helvetica" font-size="41.0" fill="#000000" transform="matrix(1.00, 0.00, -0.00, -1.00, 529.9, 422.9)">g</text><text xml:space="preserve" font-family="Helvetica-Light,Helvetica" font-size="41.0" fill="#000000" transform="matrix(1.00, 0.00, -0.00, -1.00, 554.9, 422.9)">i</text><text xml:space="preserve" font-family="Helvetica-Light,Helvetica" font-size="41.0" fill="#000000" transform="matrix(1.00, 0.00, -0.00, -1.00, 564.0, 422.9)">n</text><text xml:space="preserve" font-family="Helvetica-Light,Helvetica" font-size="41.0" fill="#000000" transform="matrix(1.00, 0.00, -0.00, -1.00, 586.8, 422.9)">e</text><text xml:space="preserve" font-family="Helvetica-Light,Helvetica" font-size="41.0" fill="#000000" transform="matrix(1.00, 0.00, -0.00, -1.00, 609.6, 422.9)">e</text><text xml:space="preserve" font-family="Helvetica-Light,Helvetica" font-size="41.0" fill="#000000" transform="matrix(1.00, 0.00, -0.00, -1.00, 632.4, 422.9)">r</text><text xml:space="preserve" font-family="Helvetica-Light,Helvetica" font-size="36.0" fill="#000000" transform="matrix(1.00, 0.00, -0.00, -1.00, 178.9, 313.8)">@</text><text xml:space="preserve" font-family="Helvetica-Light,Helvetica" font-size="36.0" fill="#000000" transform="matrix(1.00, 0.00, -0.00, -1.00, 207.7, 313.8)">R</text><text xml:space="preserve" font-family="Helvetica-Light,Helvetica" font-size="36.0" fill="#000000" transform="matrix(1.00, 0.00, -0.00, -1.00, 231.7, 313.8)">D</text><text xml:space="preserve" font-family="Helvetica-Light,Helvetica" font-size="36.0" fill="#000000" transform="matrix(1.00, 0.00, -0.00, -1.00, 257.7, 313.8)">P</text><text xml:space="preserve" font-family="Helvetica-Light,Helvetica" font-size="36.0" fill="#000000" transform="matrix(1.00, 0.00, -0.00, -1.00, 279.7, 313.8)">a</text><text xml:space="preserve" font-family="Helvetica-Light,Helvetica" font-size="36.0" fill="#000000" transform="matrix(1.00, 0.00, -0.00, -1.00, 299.7, 313.8)">n</text><text xml:space="preserve" font-family="Helvetica-Light,Helvetica" font-size="36.0" fill="#000000" transform="matrix(1.00, 0.00, -0.00, -1.00, 319.8, 313.8)">e</text><text xml:space="preserve" font-family="Helvetica-Light,Helvetica" font-size="36.0" fill="#000000" transform="matrix(1.00, 0.00, -0.00, -1.00, 339.8, 313.8)">k</text><text xml:space="preserve" font-family="Helvetica-Light,Helvetica" font-size="36.0" fill="#000000" transform="matrix(1.00, 0.00, -0.00, -1.00, 357.8, 313.8)"> </text><text xml:space="preserve" font-family="Helvetica-Light,Helvetica" font-size="36.0" fill="#000000" transform="matrix(1.00, 0.00, -0.00, -1.00, 367.8, 313.8)">|</text><text xml:space="preserve" font-family="Helvetica-Light,Helvetica" font-size="36.0" fill="#000000" transform="matrix(1.00, 0.00, -0.00, -1.00, 375.8, 313.8)"> </text><text xml:space="preserve" font-family="Helvetica-Light,Helvetica" font-size="36.0" fill="#000000" transform="matrix(1.00, 0.00, -0.00, -1.00, 385.8, 313.8)">r</text><text xml:space="preserve" font-family="Helvetica-Light,Helvetica" font-size="36.0" fill="#000000" transform="matrix(1.00, 0.00, -0.00, -1.00, 397.1, 313.8)">d</text><text xml:space="preserve" font-family="Helvetica-Light,Helvetica" font-size="36.0" fill="#000000" transform="matrix(1.00, 0.00, -0.00, -1.00, 419.1, 313.8)">p</text><text xml:space="preserve" font-family="Helvetica-Light,Helvetica" font-size="36.0" fill="#000000" transform="matrix(1.00, 0.00, -0.00, -1.00, 441.1, 313.8)">a</text><text xml:space="preserve" font-family="Helvetica-Light,Helvetica" font-size="36.0" fill="#000000" transform="matrix(1.00, 0.00, -0.00, -1.00, 461.1, 313.8)">n</text><text xml:space="preserve" font-family="Helvetica-Light,Helvetica" font-size="36.0" fill="#000000" transform="matrix(1.00, 0.00, -0.00, -1.00, 481.1, 313.8)">e</text><text xml:space="preserve" font-family="Helvetica-Light,Helvetica" font-size="36.0" fill="#000000" transform="matrix(1.00, 0.00, -0.00, -1.00, 501.2, 313.8)">k</text><text xml:space="preserve" font-family="Helvetica-Light,Helvetica" font-size="36.0" fill="#000000" transform="matrix(1.00, 0.00, -0.00, -1.00, 519.2, 313.8)">.</text><text xml:space="preserve" font-family="Helvetica-Light,Helvetica" font-size="36.0" fill="#000000" transform="matrix(1.00, 0.00, -0.00, -1.00, 529.2, 313.8)">c</text><text xml:space="preserve" font-family="Helvetica-Light,Helvetica" font-size="36.0" fill="#000000" transform="matrix(1.00, 0.00, -0.00, -1.00, 549.2, 313.8)">z</text><image xlink:href="514553A43395F957110AB6534BF312E5.png" width="1280.00" height="448.00" transform="matrix(0.35, 0.00, -0.00, -0.35, 399.0, 187.0)"></image></g></svg>