<?xml version="1.0" encoding="UTF-8" standalone="no"?><svg xmlns="http://www.w3.org/2000/svg" xmlns:xlink="http://www.w3.org/1999/xlink" clip-rule="evenodd" stroke-miterlimit="10" viewBox="0 0 375 44"><desc>SVG generated by Keynote</desc><defs></defs><g transform="matrix(1.00, 0.00, -0.00, -1.00, 0.0, 44.0)"><image xlink:href="../../DAA1CE98-60D5-4253-8D04-2ED59D80D482/assets/2BDD2B3C826D2EA307C0199CDD88384E.png" width="80.00" height="80.00" transform="matrix(0.24, 0.00, -0.00, -0.24, 0.7, 32.0)"></image><text xml:space="preserve" font-family="Helvetica-Light,Helvetica" font-size="42.0" fill="#000000" transform="matrix(1.00, 0.00, -0.00, -1.00, 59.0, 11.2)">w</text><text xml:space="preserve" font-family="Helvetica-Light,Helvetica" font-size="42.0" fill="#000000" transform="matrix(1.00, 0.00, -0.00, -1.00, 89.4, 11.2)">h</text><text xml:space="preserve" font-family="Helvetica-Light,Helvetica" font-size="42.0" fill="#000000" transform="matrix(1.00, 0.00, -0.00, -1.00, 112.7, 11.2)">i</text><text xml:space="preserve" font-family="Helvetica-Light,Helvetica" font-size="42.0" fill="#000000" transform="matrix(1.00, 0.00, -0.00, -1.00, 122.0, 11.2)">t</text><text xml:space="preserve" font-family="Helvetica-Light,Helvetica" font-size="42.0" fill="#000000" transform="matrix(1.00, 0.00, -0.00, -1.00, 133.7, 11.2)">e</text><text xml:space="preserve" font-family="Helvetica-Light,Helvetica" font-size="42.0" fill="#000000" transform="matrix(1.00, 0.00, -0.00, -1.00, 157.1, 11.2)"> </text><text xml:space="preserve" font-family="Helvetica-Light,Helvetica" font-size="42.0" fill="#000000" transform="matrix(1.00, 0.00, -0.00, -1.00, 168.7, 11.2)">/</text><text xml:space="preserve" font-family="Helvetica-Light,Helvetica" font-size="42.0" fill="#000000" transform="matrix(1.00, 0.00, -0.00, -1.00, 180.4, 11.2)"> </text><text xml:space="preserve" font-family="Helvetica-Light,Helvetica" font-size="42.0" fill="#000000" transform="matrix(1.00, 0.00, -0.00, -1.00, 192.1, 11.2)">g</text><text xml:space="preserve" font-family="Helvetica-Light,Helvetica" font-size="42.0" fill="#000000" transform="matrix(1.00, 0.00, -0.00, -1.00, 217.8, 11.2)">l</text><text xml:space="preserve" font-family="Helvetica-Light,Helvetica" font-size="42.0" fill="#000000" transform="matrix(1.00, 0.00, -0.00, -1.00, 227.1, 11.2)">a</text><text xml:space="preserve" font-family="Helvetica-Light,Helvetica" font-size="42.0" fill="#000000" transform="matrix(1.00, 0.00, -0.00, -1.00, 250.4, 11.2)">s</text><text xml:space="preserve" font-family="Helvetica-Light,Helvetica" font-size="42.0" fill="#000000" transform="matrix(1.00, 0.00, -0.00, -1.00, 271.4, 11.2)">s</text><text xml:space="preserve" font-family="Helvetica-Light,Helvetica" font-size="42.0" fill="#000000" transform="matrix(1.00, 0.00, -0.00, -1.00, 292.4, 11.2)"> </text><text xml:space="preserve" font-family="Helvetica-Light,Helvetica" font-size="42.0" fill="#000000" transform="matrix(1.00, 0.00, -0.00, -1.00, 304.1, 11.2)">b</text><text xml:space="preserve" font-family="Helvetica-Light,Helvetica" font-size="42.0" fill="#000000" transform="matrix(1.00, 0.00, -0.00, -1.00, 329.8, 11.2)">o</text><text xml:space="preserve" font-family="Helvetica-Light,Helvetica" font-size="42.0" fill="#000000" transform="matrix(1.00, 0.00, -0.00, -1.00, 353.1, 11.2)">x</text></g></svg>