<?xml version="1.0" encoding="UTF-8" standalone="no"?><svg xmlns="http://www.w3.org/2000/svg" xmlns:xlink="http://www.w3.org/1999/xlink" clip-rule="evenodd" stroke-miterlimit="10" viewBox="0 0 582 75"><desc>SVG generated by Keynote</desc><defs></defs><g transform="matrix(1.00, 0.00, -0.00, -1.00, 0.0, 75.0)"><image xlink:href="../../DAA1CE98-60D5-4253-8D04-2ED59D80D482/assets/2BDD2B3C826D2EA307C0199CDD88384E.png" width="80.00" height="80.00" transform="matrix(0.19, 0.00, -0.00, -0.19, 0.9, 65.6)"></image><text xml:space="preserve" font-family="Helvetica-Light,Helvetica" font-size="33.0" fill="#000000" transform="matrix(1.00, 0.00, -0.00, -1.00, 59.2, 49.3)">J</text><text xml:space="preserve" font-family="Helvetica-Light,Helvetica" font-size="33.0" fill="#000000" transform="matrix(1.00, 0.00, -0.00, -1.00, 75.7, 49.3)">s</text><text xml:space="preserve" font-family="Helvetica-Light,Helvetica" font-size="33.0" fill="#000000" transform="matrix(1.00, 0.00, -0.00, -1.00, 92.2, 49.3)">o</text><text xml:space="preserve" font-family="Helvetica-Light,Helvetica" font-size="33.0" fill="#000000" transform="matrix(1.00, 0.00, -0.00, -1.00, 110.6, 49.3)">u</text><text xml:space="preserve" font-family="Helvetica-Light,Helvetica" font-size="33.0" fill="#000000" transform="matrix(1.00, 0.00, -0.00, -1.00, 128.9, 49.3)"> </text><text xml:space="preserve" font-family="Helvetica-Light,Helvetica" font-size="33.0" fill="#000000" transform="matrix(1.00, 0.00, -0.00, -1.00, 138.1, 49.3)">v</text><text xml:space="preserve" font-family="Helvetica-Light,Helvetica" font-size="33.0" fill="#000000" transform="matrix(1.00, 0.00, -0.00, -1.00, 154.6, 49.3)">š</text><text xml:space="preserve" font-family="Helvetica-Light,Helvetica" font-size="33.0" fill="#000000" transform="matrix(1.00, 0.00, -0.00, -1.00, 171.1, 49.3)">e</text><text xml:space="preserve" font-family="Helvetica-Light,Helvetica" font-size="33.0" fill="#000000" transform="matrix(1.00, 0.00, -0.00, -1.00, 189.4, 49.3)">c</text><text xml:space="preserve" font-family="Helvetica-Light,Helvetica" font-size="33.0" fill="#000000" transform="matrix(1.00, 0.00, -0.00, -1.00, 207.8, 49.3)">h</text><text xml:space="preserve" font-family="Helvetica-Light,Helvetica" font-size="33.0" fill="#000000" transform="matrix(1.00, 0.00, -0.00, -1.00, 226.1, 49.3)">n</text><text xml:space="preserve" font-family="Helvetica-Light,Helvetica" font-size="33.0" fill="#000000" transform="matrix(1.00, 0.00, -0.00, -1.00, 244.5, 49.3)">y</text><text xml:space="preserve" font-family="Helvetica-Light,Helvetica" font-size="33.0" fill="#000000" transform="matrix(1.00, 0.00, -0.00, -1.00, 261.0, 49.3)"> </text><text xml:space="preserve" font-family="Helvetica-Light,Helvetica" font-size="33.0" fill="#000000" transform="matrix(1.00, 0.00, -0.00, -1.00, 270.1, 49.3)">k</text><text xml:space="preserve" font-family="Helvetica-Light,Helvetica" font-size="33.0" fill="#000000" transform="matrix(1.00, 0.00, -0.00, -1.00, 286.6, 49.3)">o</text><text xml:space="preserve" font-family="Helvetica-Light,Helvetica" font-size="33.0" fill="#000000" transform="matrix(1.00, 0.00, -0.00, -1.00, 305.0, 49.3)">m</text><text xml:space="preserve" font-family="Helvetica-Light,Helvetica" font-size="33.0" fill="#000000" transform="matrix(1.00, 0.00, -0.00, -1.00, 332.5, 49.3)">p</text><text xml:space="preserve" font-family="Helvetica-Light,Helvetica" font-size="33.0" fill="#000000" transform="matrix(1.00, 0.00, -0.00, -1.00, 352.6, 49.3)">o</text><text xml:space="preserve" font-family="Helvetica-Light,Helvetica" font-size="33.0" fill="#000000" transform="matrix(1.00, 0.00, -0.00, -1.00, 371.0, 49.3)">n</text><text xml:space="preserve" font-family="Helvetica-Light,Helvetica" font-size="33.0" fill="#000000" transform="matrix(1.00, 0.00, -0.00, -1.00, 389.3, 49.3)">e</text><text xml:space="preserve" font-family="Helvetica-Light,Helvetica" font-size="33.0" fill="#000000" transform="matrix(1.00, 0.00, -0.00, -1.00, 407.7, 49.3)">n</text><text xml:space="preserve" font-family="Helvetica-Light,Helvetica" font-size="33.0" fill="#000000" transform="matrix(1.00, 0.00, -0.00, -1.00, 426.0, 49.3)">t</text><text xml:space="preserve" font-family="Helvetica-Light,Helvetica" font-size="33.0" fill="#000000" transform="matrix(1.00, 0.00, -0.00, -1.00, 435.2, 49.3)">y</text><text xml:space="preserve" font-family="Helvetica-Light,Helvetica" font-size="33.0" fill="#000000" transform="matrix(1.00, 0.00, -0.00, -1.00, 451.7, 49.3)"> </text><text xml:space="preserve" font-family="Helvetica-Light,Helvetica" font-size="33.0" fill="#000000" transform="matrix(1.00, 0.00, -0.00, -1.00, 460.9, 49.3)">s</text><text xml:space="preserve" font-family="Helvetica-Light,Helvetica" font-size="33.0" fill="#000000" transform="matrix(1.00, 0.00, -0.00, -1.00, 477.4, 49.3)">p</text><text xml:space="preserve" font-family="Helvetica-Light,Helvetica" font-size="33.0" fill="#000000" transform="matrix(1.00, 0.00, -0.00, -1.00, 497.6, 49.3)">r</text><text xml:space="preserve" font-family="Helvetica-Light,Helvetica" font-size="33.0" fill="#000000" transform="matrix(1.00, 0.00, -0.00, -1.00, 508.5, 49.3)">á</text><text xml:space="preserve" font-family="Helvetica-Light,Helvetica" font-size="33.0" fill="#000000" transform="matrix(1.00, 0.00, -0.00, -1.00, 526.9, 49.3)">v</text><text xml:space="preserve" font-family="Helvetica-Light,Helvetica" font-size="33.0" fill="#000000" transform="matrix(1.00, 0.00, -0.00, -1.00, 543.4, 49.3)">n</text><text xml:space="preserve" font-family="Helvetica-Light,Helvetica" font-size="33.0" fill="#000000" transform="matrix(1.00, 0.00, -0.00, -1.00, 561.7, 49.3)">ě</text><text xml:space="preserve" font-family="Helvetica-Light,Helvetica" font-size="33.0" fill="#000000" transform="matrix(1.00, 0.00, -0.00, -1.00, 580.1, 49.3)"> </text><text xml:space="preserve" font-family="Helvetica-Light,Helvetica" font-size="33.0" fill="#000000" transform="matrix(1.00, 0.00, -0.00, -1.00, 59.2, 9.3)">n</text><text xml:space="preserve" font-family="Helvetica-Light,Helvetica" font-size="33.0" fill="#000000" transform="matrix(1.00, 0.00, -0.00, -1.00, 77.6, 9.3)">a</text><text xml:space="preserve" font-family="Helvetica-Light,Helvetica" font-size="33.0" fill="#000000" transform="matrix(1.00, 0.00, -0.00, -1.00, 95.9, 9.3)">i</text><text xml:space="preserve" font-family="Helvetica-Light,Helvetica" font-size="33.0" fill="#000000" transform="matrix(1.00, 0.00, -0.00, -1.00, 103.2, 9.3)">n</text><text xml:space="preserve" font-family="Helvetica-Light,Helvetica" font-size="33.0" fill="#000000" transform="matrix(1.00, 0.00, -0.00, -1.00, 121.6, 9.3)">s</text><text xml:space="preserve" font-family="Helvetica-Light,Helvetica" font-size="33.0" fill="#000000" transform="matrix(1.00, 0.00, -0.00, -1.00, 138.1, 9.3)">t</text><text xml:space="preserve" font-family="Helvetica-Light,Helvetica" font-size="33.0" fill="#000000" transform="matrix(1.00, 0.00, -0.00, -1.00, 147.3, 9.3)">a</text><text xml:space="preserve" font-family="Helvetica-Light,Helvetica" font-size="33.0" fill="#000000" transform="matrix(1.00, 0.00, -0.00, -1.00, 165.6, 9.3)">l</text><text xml:space="preserve" font-family="Helvetica-Light,Helvetica" font-size="33.0" fill="#000000" transform="matrix(1.00, 0.00, -0.00, -1.00, 172.9, 9.3)">o</text><text xml:space="preserve" font-family="Helvetica-Light,Helvetica" font-size="33.0" fill="#000000" transform="matrix(1.00, 0.00, -0.00, -1.00, 191.3, 9.3)">v</text><text xml:space="preserve" font-family="Helvetica-Light,Helvetica" font-size="33.0" fill="#000000" transform="matrix(1.00, 0.00, -0.00, -1.00, 207.8, 9.3)">á</text><text xml:space="preserve" font-family="Helvetica-Light,Helvetica" font-size="33.0" fill="#000000" transform="matrix(1.00, 0.00, -0.00, -1.00, 226.1, 9.3)">n</text><text xml:space="preserve" font-family="Helvetica-Light,Helvetica" font-size="33.0" fill="#000000" transform="matrix(1.00, 0.00, -0.00, -1.00, 244.5, 9.3)">y</text><text xml:space="preserve" font-family="Helvetica-Light,Helvetica" font-size="33.0" fill="#000000" transform="matrix(1.00, 0.00, -0.00, -1.00, 261.0, 9.3)">?</text></g></svg>