<?xml version="1.0" encoding="UTF-8" standalone="no"?><svg xmlns="http://www.w3.org/2000/svg" xmlns:xlink="http://www.w3.org/1999/xlink" clip-rule="evenodd" stroke-miterlimit="10" viewBox="0 0 332 35"><desc>SVG generated by Keynote</desc><defs></defs><g transform="matrix(1.00, 0.00, -0.00, -1.00, 0.0, 35.0)"><image xlink:href="../../DAA1CE98-60D5-4253-8D04-2ED59D80D482/assets/2BDD2B3C826D2EA307C0199CDD88384E.png" width="80.00" height="80.00" transform="matrix(0.19, 0.00, -0.00, -0.19, 0.9, 25.6)"></image><text xml:space="preserve" font-family="Helvetica-Light,Helvetica" font-size="33.0" fill="#000000" transform="matrix(1.00, 0.00, -0.00, -1.00, 59.2, 9.3)">A</text><text xml:space="preserve" font-family="Helvetica-Light,Helvetica" font-size="33.0" fill="#000000" transform="matrix(1.00, 0.00, -0.00, -1.00, 81.2, 9.3)">p</text><text xml:space="preserve" font-family="Helvetica-Light,Helvetica" font-size="33.0" fill="#000000" transform="matrix(1.00, 0.00, -0.00, -1.00, 101.4, 9.3)">l</text><text xml:space="preserve" font-family="Helvetica-Light,Helvetica" font-size="33.0" fill="#000000" transform="matrix(1.00, 0.00, -0.00, -1.00, 108.7, 9.3)">i</text><text xml:space="preserve" font-family="Helvetica-Light,Helvetica" font-size="33.0" fill="#000000" transform="matrix(1.00, 0.00, -0.00, -1.00, 116.0, 9.3)">k</text><text xml:space="preserve" font-family="Helvetica-Light,Helvetica" font-size="33.0" fill="#000000" transform="matrix(1.00, 0.00, -0.00, -1.00, 132.5, 9.3)">a</text><text xml:space="preserve" font-family="Helvetica-Light,Helvetica" font-size="33.0" fill="#000000" transform="matrix(1.00, 0.00, -0.00, -1.00, 150.9, 9.3)">c</text><text xml:space="preserve" font-family="Helvetica-Light,Helvetica" font-size="33.0" fill="#000000" transform="matrix(1.00, 0.00, -0.00, -1.00, 169.2, 9.3)">e</text><text xml:space="preserve" font-family="Helvetica-Light,Helvetica" font-size="33.0" fill="#000000" transform="matrix(1.00, 0.00, -0.00, -1.00, 187.6, 9.3)"> </text><text xml:space="preserve" font-family="Helvetica-Light,Helvetica" font-size="33.0" fill="#000000" transform="matrix(1.00, 0.00, -0.00, -1.00, 196.8, 9.3)">j</text><text xml:space="preserve" font-family="Helvetica-Light,Helvetica" font-size="33.0" fill="#000000" transform="matrix(1.00, 0.00, -0.00, -1.00, 204.1, 9.3)">e</text><text xml:space="preserve" font-family="Helvetica-Light,Helvetica" font-size="33.0" fill="#000000" transform="matrix(1.00, 0.00, -0.00, -1.00, 222.4, 9.3)"> </text><text xml:space="preserve" font-family="Helvetica-Light,Helvetica" font-size="33.0" fill="#000000" transform="matrix(1.00, 0.00, -0.00, -1.00, 231.6, 9.3)">h</text><text xml:space="preserve" font-family="Helvetica-Light,Helvetica" font-size="33.0" fill="#000000" transform="matrix(1.00, 0.00, -0.00, -1.00, 250.0, 9.3)">o</text><text xml:space="preserve" font-family="Helvetica-Light,Helvetica" font-size="33.0" fill="#000000" transform="matrix(1.00, 0.00, -0.00, -1.00, 268.3, 9.3)">t</text><text xml:space="preserve" font-family="Helvetica-Light,Helvetica" font-size="33.0" fill="#000000" transform="matrix(1.00, 0.00, -0.00, -1.00, 277.5, 9.3)">o</text><text xml:space="preserve" font-family="Helvetica-Light,Helvetica" font-size="33.0" fill="#000000" transform="matrix(1.00, 0.00, -0.00, -1.00, 295.8, 9.3)">v</text><text xml:space="preserve" font-family="Helvetica-Light,Helvetica" font-size="33.0" fill="#000000" transform="matrix(1.00, 0.00, -0.00, -1.00, 312.3, 9.3)">a</text></g></svg>