<?xml version="1.0" encoding="UTF-8" standalone="no"?><svg xmlns="http://www.w3.org/2000/svg" xmlns:xlink="http://www.w3.org/1999/xlink" clip-rule="evenodd" stroke-miterlimit="10" viewBox="0 0 1024 768"><desc>SVG generated by Keynote</desc><defs></defs><g transform="matrix(1.00, 0.00, -0.00, -1.00, 0.0, 768.0)"><path d="M 0.0 768.0 L 1024.0 768.0 L 1024.0 0.0 L 0.0 0.0 Z M 0.0 768.0 " fill="#FEFFFF"></path><text xml:space="preserve" font-family="Helvetica-Light,Helvetica" font-size="80.0" fill="#8948B3" transform="matrix(1.00, 0.00, -0.00, -1.00, 345.3, 608.4)">C</text><text xml:space="preserve" font-family="Helvetica-Light,Helvetica" font-size="80.0" fill="#8948B3" transform="matrix(1.00, 0.00, -0.00, -1.00, 403.0, 608.4)">o</text><text xml:space="preserve" font-family="Helvetica-Light,Helvetica" font-size="80.0" fill="#8948B3" transform="matrix(1.00, 0.00, -0.00, -1.00, 447.5, 608.4)"> </text><text xml:space="preserve" font-family="Helvetica-Light,Helvetica" font-size="80.0" fill="#8948B3" transform="matrix(1.00, 0.00, -0.00, -1.00, 469.8, 608.4)">t</text><text xml:space="preserve" font-family="Helvetica-Light,Helvetica" font-size="80.0" fill="#8948B3" transform="matrix(1.00, 0.00, -0.00, -1.00, 492.0, 608.4)">e</text><text xml:space="preserve" font-family="Helvetica-Light,Helvetica" font-size="80.0" fill="#8948B3" transform="matrix(1.00, 0.00, -0.00, -1.00, 536.5, 608.4)">s</text><text xml:space="preserve" font-family="Helvetica-Light,Helvetica" font-size="80.0" fill="#8948B3" transform="matrix(1.00, 0.00, -0.00, -1.00, 576.5, 608.4)">t</text><text xml:space="preserve" font-family="Helvetica-Light,Helvetica" font-size="80.0" fill="#8948B3" transform="matrix(1.00, 0.00, -0.00, -1.00, 598.7, 608.4)">u</text><text xml:space="preserve" font-family="Helvetica-Light,Helvetica" font-size="80.0" fill="#8948B3" transform="matrix(1.00, 0.00, -0.00, -1.00, 643.2, 608.4)">j</text><text xml:space="preserve" font-family="Helvetica-Light,Helvetica" font-size="80.0" fill="#8948B3" transform="matrix(1.00, 0.00, -0.00, -1.00, 661.0, 608.4)">i</text><image xlink:href="../../DAA1CE98-60D5-4253-8D04-2ED59D80D482/assets/2BDD2B3C826D2EA307C0199CDD88384E.png" width="80.00" height="80.00" transform="matrix(0.34, 0.00, -0.00, -0.34, 109.3, 467.3)"></image><text xml:space="preserve" font-family="Helvetica-Light,Helvetica" font-size="60.0" fill="#000000" transform="matrix(1.00, 0.00, -0.00, -1.00, 167.6, 437.6)">G</text><text xml:space="preserve" font-family="Helvetica-Light,Helvetica" font-size="60.0" fill="#000000" transform="matrix(1.00, 0.00, -0.00, -1.00, 214.3, 437.6)">u</text><text xml:space="preserve" font-family="Helvetica-Light,Helvetica" font-size="60.0" fill="#000000" transform="matrix(1.00, 0.00, -0.00, -1.00, 247.7, 437.6)">i</text><text xml:space="preserve" font-family="Helvetica-Light,Helvetica" font-size="60.0" fill="#000000" transform="matrix(1.00, 0.00, -0.00, -1.00, 261.0, 437.6)"> </text><text xml:space="preserve" font-family="Helvetica-Light,Helvetica" font-size="60.0" fill="#000000" transform="matrix(1.00, 0.00, -0.00, -1.00, 277.7, 437.6)">-</text><text xml:space="preserve" font-family="Helvetica-Light,Helvetica" font-size="60.0" fill="#000000" transform="matrix(1.00, 0.00, -0.00, -1.00, 297.6, 437.6)"> </text><text xml:space="preserve" font-family="Helvetica-Light,Helvetica" font-size="60.0" fill="#000000" transform="matrix(1.00, 0.00, -0.00, -1.00, 314.3, 437.6)">v</text><text xml:space="preserve" font-family="Helvetica-Light,Helvetica" font-size="60.0" fill="#000000" transform="matrix(1.00, 0.00, -0.00, -1.00, 344.3, 437.6)">i</text><text xml:space="preserve" font-family="Helvetica-Light,Helvetica" font-size="60.0" fill="#000000" transform="matrix(1.00, 0.00, -0.00, -1.00, 357.6, 437.6)">s</text><text xml:space="preserve" font-family="Helvetica-Light,Helvetica" font-size="60.0" fill="#000000" transform="matrix(1.00, 0.00, -0.00, -1.00, 387.6, 437.6)">u</text><text xml:space="preserve" font-family="Helvetica-Light,Helvetica" font-size="60.0" fill="#000000" transform="matrix(1.00, 0.00, -0.00, -1.00, 421.0, 437.6)">a</text><text xml:space="preserve" font-family="Helvetica-Light,Helvetica" font-size="60.0" fill="#000000" transform="matrix(1.00, 0.00, -0.00, -1.00, 454.4, 437.6)">l</text><text xml:space="preserve" font-family="Helvetica-Light,Helvetica" font-size="60.0" fill="#000000" transform="matrix(1.00, 0.00, -0.00, -1.00, 467.7, 437.6)">T</text><text xml:space="preserve" font-family="Helvetica-Light,Helvetica" font-size="60.0" fill="#000000" transform="matrix(1.00, 0.00, -0.00, -1.00, 494.4, 437.6)">e</text><text xml:space="preserve" font-family="Helvetica-Light,Helvetica" font-size="60.0" fill="#000000" transform="matrix(1.00, 0.00, -0.00, -1.00, 527.7, 437.6)">s</text><text xml:space="preserve" font-family="Helvetica-Light,Helvetica" font-size="60.0" fill="#000000" transform="matrix(1.00, 0.00, -0.00, -1.00, 557.7, 437.6)">t</text><text xml:space="preserve" font-family="Helvetica-Light,Helvetica" font-size="60.0" fill="#000000" transform="matrix(1.00, 0.00, -0.00, -1.00, 574.4, 437.6)">s</text><image xlink:href="../../DFBEDAC3-6A11-492B-9C6E-6B197D888993/assets/85FB5FA33F6B16D437599678EE1DA08C.png" width="646.00" height="163.00" transform="matrix(1.00, 0.00, -0.00, -1.00, 66.0, 394.0)"></image><image xlink:href="../../DFBEDAC3-6A11-492B-9C6E-6B197D888993/assets/141E07226BC8030FD64ACCD271A423B9.png" width="584.00" height="130.00" transform="matrix(1.00, 0.00, -0.00, -1.00, -6.0, 224.0)"></image><image xlink:href="../../DFBEDAC3-6A11-492B-9C6E-6B197D888993/assets/DABD579743C946F3484868311B93B87F.png" width="568.00" height="126.00" transform="matrix(1.00, 0.00, -0.00, -1.00, 483.0, 130.0)"></image></g></svg>