<?xml version="1.0" encoding="UTF-8" standalone="no"?><svg xmlns="http://www.w3.org/2000/svg" xmlns:xlink="http://www.w3.org/1999/xlink" clip-rule="evenodd" stroke-miterlimit="10" viewBox="0 0 781 192"><desc>SVG generated by Keynote</desc><defs></defs><g transform="matrix(1.00, 0.00, -0.00, -1.00, 0.0, 192.0)"><image xlink:href="../../DAA1CE98-60D5-4253-8D04-2ED59D80D482/assets/2BDD2B3C826D2EA307C0199CDD88384E.png" width="80.00" height="80.00" transform="matrix(0.24, 0.00, -0.00, -0.24, 0.7, 181.5)"></image><text xml:space="preserve" font-family="Helvetica-Light,Helvetica" font-size="42.0" fill="#000000" transform="matrix(1.00, 0.00, -0.00, -1.00, 59.0, 160.7)">d</text><text xml:space="preserve" font-family="Helvetica-Light,Helvetica" font-size="42.0" fill="#000000" transform="matrix(1.00, 0.00, -0.00, -1.00, 84.7, 160.7)">o</text><text xml:space="preserve" font-family="Helvetica-Light,Helvetica" font-size="42.0" fill="#000000" transform="matrix(1.00, 0.00, -0.00, -1.00, 108.0, 160.7)">k</text><text xml:space="preserve" font-family="Helvetica-Light,Helvetica" font-size="42.0" fill="#000000" transform="matrix(1.00, 0.00, -0.00, -1.00, 129.0, 160.7)">u</text><text xml:space="preserve" font-family="Helvetica-Light,Helvetica" font-size="42.0" fill="#000000" transform="matrix(1.00, 0.00, -0.00, -1.00, 152.4, 160.7)">m</text><text xml:space="preserve" font-family="Helvetica-Light,Helvetica" font-size="42.0" fill="#000000" transform="matrix(1.00, 0.00, -0.00, -1.00, 187.4, 160.7)">e</text><text xml:space="preserve" font-family="Helvetica-Light,Helvetica" font-size="42.0" fill="#000000" transform="matrix(1.00, 0.00, -0.00, -1.00, 210.7, 160.7)">n</text><text xml:space="preserve" font-family="Helvetica-Light,Helvetica" font-size="42.0" fill="#000000" transform="matrix(1.00, 0.00, -0.00, -1.00, 234.1, 160.7)">t</text><text xml:space="preserve" font-family="Helvetica-Light,Helvetica" font-size="42.0" fill="#000000" transform="matrix(1.00, 0.00, -0.00, -1.00, 245.8, 160.7)">a</text><text xml:space="preserve" font-family="Helvetica-Light,Helvetica" font-size="42.0" fill="#000000" transform="matrix(1.00, 0.00, -0.00, -1.00, 269.1, 160.7)">c</text><text xml:space="preserve" font-family="Helvetica-Light,Helvetica" font-size="42.0" fill="#000000" transform="matrix(1.00, 0.00, -0.00, -1.00, 292.5, 160.7)">e</text><text xml:space="preserve" font-family="Helvetica-Light,Helvetica" font-size="42.0" fill="#000000" transform="matrix(1.00, 0.00, -0.00, -1.00, 315.8, 160.7)">,</text><text xml:space="preserve" font-family="Helvetica-Light,Helvetica" font-size="42.0" fill="#000000" transform="matrix(1.00, 0.00, -0.00, -1.00, 327.5, 160.7)"> </text><text xml:space="preserve" font-family="Helvetica-Light,Helvetica" font-size="42.0" fill="#000000" transform="matrix(1.00, 0.00, -0.00, -1.00, 339.2, 160.7)">s</text><text xml:space="preserve" font-family="Helvetica-Light,Helvetica" font-size="42.0" fill="#000000" transform="matrix(1.00, 0.00, -0.00, -1.00, 360.2, 160.7)">k</text><text xml:space="preserve" font-family="Helvetica-Light,Helvetica" font-size="42.0" fill="#000000" transform="matrix(1.00, 0.00, -0.00, -1.00, 381.2, 160.7)">r</text><text xml:space="preserve" font-family="Helvetica-Light,Helvetica" font-size="42.0" fill="#000000" transform="matrix(1.00, 0.00, -0.00, -1.00, 395.2, 160.7)">i</text><text xml:space="preserve" font-family="Helvetica-Light,Helvetica" font-size="42.0" fill="#000000" transform="matrix(1.00, 0.00, -0.00, -1.00, 404.5, 160.7)">p</text><text xml:space="preserve" font-family="Helvetica-Light,Helvetica" font-size="42.0" fill="#000000" transform="matrix(1.00, 0.00, -0.00, -1.00, 430.1, 160.7)">t</text><text xml:space="preserve" font-family="Helvetica-Light,Helvetica" font-size="42.0" fill="#000000" transform="matrix(1.00, 0.00, -0.00, -1.00, 441.8, 160.7)">y</text><text xml:space="preserve" font-family="Helvetica-Light,Helvetica" font-size="42.0" fill="#000000" transform="matrix(1.00, 0.00, -0.00, -1.00, 459.0, 160.7)">,</text><text xml:space="preserve" font-family="Helvetica-Light,Helvetica" font-size="42.0" fill="#000000" transform="matrix(1.00, 0.00, -0.00, -1.00, 470.6, 160.7)"> </text><text xml:space="preserve" font-family="Helvetica-Light,Helvetica" font-size="42.0" fill="#000000" transform="matrix(1.00, 0.00, -0.00, -1.00, 482.3, 160.7)">v</text><text xml:space="preserve" font-family="Helvetica-Light,Helvetica" font-size="42.0" fill="#000000" transform="matrix(1.00, 0.00, -0.00, -1.00, 503.3, 160.7)">s</text><text xml:space="preserve" font-family="Helvetica-Light,Helvetica" font-size="42.0" fill="#000000" transform="matrix(1.00, 0.00, -0.00, -1.00, 524.3, 160.7)">t</text><text xml:space="preserve" font-family="Helvetica-Light,Helvetica" font-size="42.0" fill="#000000" transform="matrix(1.00, 0.00, -0.00, -1.00, 536.0, 160.7)">u</text><text xml:space="preserve" font-family="Helvetica-Light,Helvetica" font-size="42.0" fill="#000000" transform="matrix(1.00, 0.00, -0.00, -1.00, 559.3, 160.7)">p</text><text xml:space="preserve" font-family="Helvetica-Light,Helvetica" font-size="42.0" fill="#000000" transform="matrix(1.00, 0.00, -0.00, -1.00, 585.0, 160.7)">y</text><text xml:space="preserve" font-family="Helvetica-Light,Helvetica" font-size="42.0" fill="#000000" transform="matrix(1.00, 0.00, -0.00, -1.00, 602.1, 160.7)">,</text><text xml:space="preserve" font-family="Helvetica-Light,Helvetica" font-size="42.0" fill="#000000" transform="matrix(1.00, 0.00, -0.00, -1.00, 613.8, 160.7)"> </text><text xml:space="preserve" font-family="Helvetica-Light,Helvetica" font-size="42.0" fill="#000000" transform="matrix(1.00, 0.00, -0.00, -1.00, 59.0, 110.7)">o</text><text xml:space="preserve" font-family="Helvetica-Light,Helvetica" font-size="42.0" fill="#000000" transform="matrix(1.00, 0.00, -0.00, -1.00, 82.4, 110.7)">č</text><text xml:space="preserve" font-family="Helvetica-Light,Helvetica" font-size="42.0" fill="#000000" transform="matrix(1.00, 0.00, -0.00, -1.00, 105.7, 110.7)">e</text><text xml:space="preserve" font-family="Helvetica-Light,Helvetica" font-size="42.0" fill="#000000" transform="matrix(1.00, 0.00, -0.00, -1.00, 129.1, 110.7)">k</text><text xml:space="preserve" font-family="Helvetica-Light,Helvetica" font-size="42.0" fill="#000000" transform="matrix(1.00, 0.00, -0.00, -1.00, 150.1, 110.7)">á</text><text xml:space="preserve" font-family="Helvetica-Light,Helvetica" font-size="42.0" fill="#000000" transform="matrix(1.00, 0.00, -0.00, -1.00, 173.4, 110.7)">v</text><text xml:space="preserve" font-family="Helvetica-Light,Helvetica" font-size="42.0" fill="#000000" transform="matrix(1.00, 0.00, -0.00, -1.00, 194.4, 110.7)">a</text><text xml:space="preserve" font-family="Helvetica-Light,Helvetica" font-size="42.0" fill="#000000" transform="matrix(1.00, 0.00, -0.00, -1.00, 217.8, 110.7)">n</text><text xml:space="preserve" font-family="Helvetica-Light,Helvetica" font-size="42.0" fill="#000000" transform="matrix(1.00, 0.00, -0.00, -1.00, 241.1, 110.7)">é</text><text xml:space="preserve" font-family="Helvetica-Light,Helvetica" font-size="42.0" fill="#000000" transform="matrix(1.00, 0.00, -0.00, -1.00, 264.5, 110.7)"> </text><text xml:space="preserve" font-family="Helvetica-Light,Helvetica" font-size="42.0" fill="#000000" transform="matrix(1.00, 0.00, -0.00, -1.00, 276.2, 110.7)">v</text><text xml:space="preserve" font-family="Helvetica-Light,Helvetica" font-size="42.0" fill="#000000" transform="matrix(1.00, 0.00, -0.00, -1.00, 297.2, 110.7)">ý</text><text xml:space="preserve" font-family="Helvetica-Light,Helvetica" font-size="42.0" fill="#000000" transform="matrix(1.00, 0.00, -0.00, -1.00, 318.2, 110.7)">s</text><text xml:space="preserve" font-family="Helvetica-Light,Helvetica" font-size="42.0" fill="#000000" transform="matrix(1.00, 0.00, -0.00, -1.00, 339.2, 110.7)">l</text><text xml:space="preserve" font-family="Helvetica-Light,Helvetica" font-size="42.0" fill="#000000" transform="matrix(1.00, 0.00, -0.00, -1.00, 348.5, 110.7)">e</text><text xml:space="preserve" font-family="Helvetica-Light,Helvetica" font-size="42.0" fill="#000000" transform="matrix(1.00, 0.00, -0.00, -1.00, 371.8, 110.7)">d</text><text xml:space="preserve" font-family="Helvetica-Light,Helvetica" font-size="42.0" fill="#000000" transform="matrix(1.00, 0.00, -0.00, -1.00, 397.5, 110.7)">k</text><text xml:space="preserve" font-family="Helvetica-Light,Helvetica" font-size="42.0" fill="#000000" transform="matrix(1.00, 0.00, -0.00, -1.00, 418.5, 110.7)">y</text><text xml:space="preserve" font-family="Helvetica-Light,Helvetica" font-size="42.0" fill="#000000" transform="matrix(1.00, 0.00, -0.00, -1.00, 435.6, 110.7)">,</text><text xml:space="preserve" font-family="Helvetica-Light,Helvetica" font-size="42.0" fill="#000000" transform="matrix(1.00, 0.00, -0.00, -1.00, 447.3, 110.7)"> </text><text xml:space="preserve" font-family="Helvetica-Light,Helvetica" font-size="42.0" fill="#000000" transform="matrix(1.00, 0.00, -0.00, -1.00, 459.0, 110.7)">s</text><text xml:space="preserve" font-family="Helvetica-Light,Helvetica" font-size="42.0" fill="#000000" transform="matrix(1.00, 0.00, -0.00, -1.00, 480.0, 110.7)">e</text><text xml:space="preserve" font-family="Helvetica-Light,Helvetica" font-size="42.0" fill="#000000" transform="matrix(1.00, 0.00, -0.00, -1.00, 503.4, 110.7)">t</text><text xml:space="preserve" font-family="Helvetica-Light,Helvetica" font-size="42.0" fill="#000000" transform="matrix(1.00, 0.00, -0.00, -1.00, 515.0, 110.7)">-</text><text xml:space="preserve" font-family="Helvetica-Light,Helvetica" font-size="42.0" fill="#000000" transform="matrix(1.00, 0.00, -0.00, -1.00, 529.0, 110.7)">u</text><text xml:space="preserve" font-family="Helvetica-Light,Helvetica" font-size="42.0" fill="#000000" transform="matrix(1.00, 0.00, -0.00, -1.00, 552.4, 110.7)">p</text><text xml:space="preserve" font-family="Helvetica-Light,Helvetica" font-size="42.0" fill="#000000" transform="matrix(1.00, 0.00, -0.00, -1.00, 578.0, 110.7)"> </text><text xml:space="preserve" font-family="Helvetica-Light,Helvetica" font-size="42.0" fill="#000000" transform="matrix(1.00, 0.00, -0.00, -1.00, 589.7, 110.7)">a</text><text xml:space="preserve" font-family="Helvetica-Light,Helvetica" font-size="42.0" fill="#000000" transform="matrix(1.00, 0.00, -0.00, -1.00, 613.1, 110.7)"> </text><text xml:space="preserve" font-family="Helvetica-Light,Helvetica" font-size="42.0" fill="#000000" transform="matrix(1.00, 0.00, -0.00, -1.00, 624.7, 110.7)">c</text><text xml:space="preserve" font-family="Helvetica-Light,Helvetica" font-size="42.0" fill="#000000" transform="matrix(1.00, 0.00, -0.00, -1.00, 648.1, 110.7)">l</text><text xml:space="preserve" font-family="Helvetica-Light,Helvetica" font-size="42.0" fill="#000000" transform="matrix(1.00, 0.00, -0.00, -1.00, 657.4, 110.7)">e</text><text xml:space="preserve" font-family="Helvetica-Light,Helvetica" font-size="42.0" fill="#000000" transform="matrix(1.00, 0.00, -0.00, -1.00, 680.8, 110.7)">a</text><text xml:space="preserve" font-family="Helvetica-Light,Helvetica" font-size="42.0" fill="#000000" transform="matrix(1.00, 0.00, -0.00, -1.00, 704.1, 110.7)">r</text><text xml:space="preserve" font-family="Helvetica-Light,Helvetica" font-size="42.0" fill="#000000" transform="matrix(1.00, 0.00, -0.00, -1.00, 715.8, 110.7)">-</text><text xml:space="preserve" font-family="Helvetica-Light,Helvetica" font-size="42.0" fill="#000000" transform="matrix(1.00, 0.00, -0.00, -1.00, 729.8, 110.7)">u</text><text xml:space="preserve" font-family="Helvetica-Light,Helvetica" font-size="42.0" fill="#000000" transform="matrix(1.00, 0.00, -0.00, -1.00, 753.1, 110.7)">p</text><text xml:space="preserve" font-family="Helvetica-Light,Helvetica" font-size="42.0" fill="#000000" transform="matrix(1.00, 0.00, -0.00, -1.00, 778.8, 110.7)"> </text><text xml:space="preserve" font-family="Helvetica-Light,Helvetica" font-size="42.0" fill="#000000" transform="matrix(1.00, 0.00, -0.00, -1.00, 59.0, 60.7)">p</text><text xml:space="preserve" font-family="Helvetica-Light,Helvetica" font-size="42.0" fill="#000000" transform="matrix(1.00, 0.00, -0.00, -1.00, 84.7, 60.7)">r</text><text xml:space="preserve" font-family="Helvetica-Light,Helvetica" font-size="42.0" fill="#000000" transform="matrix(1.00, 0.00, -0.00, -1.00, 97.9, 60.7)">o</text><text xml:space="preserve" font-family="Helvetica-Light,Helvetica" font-size="42.0" fill="#000000" transform="matrix(1.00, 0.00, -0.00, -1.00, 121.3, 60.7)">c</text><text xml:space="preserve" font-family="Helvetica-Light,Helvetica" font-size="42.0" fill="#000000" transform="matrix(1.00, 0.00, -0.00, -1.00, 144.6, 60.7)">e</text><text xml:space="preserve" font-family="Helvetica-Light,Helvetica" font-size="42.0" fill="#000000" transform="matrix(1.00, 0.00, -0.00, -1.00, 168.0, 60.7)">d</text><text xml:space="preserve" font-family="Helvetica-Light,Helvetica" font-size="42.0" fill="#000000" transform="matrix(1.00, 0.00, -0.00, -1.00, 193.6, 60.7)">u</text><text xml:space="preserve" font-family="Helvetica-Light,Helvetica" font-size="42.0" fill="#000000" transform="matrix(1.00, 0.00, -0.00, -1.00, 217.0, 60.7)">r</text><text xml:space="preserve" font-family="Helvetica-Light,Helvetica" font-size="42.0" fill="#000000" transform="matrix(1.00, 0.00, -0.00, -1.00, 231.7, 60.7)">y</text><text xml:space="preserve" font-family="Helvetica-Light,Helvetica" font-size="42.0" fill="#000000" transform="matrix(1.00, 0.00, -0.00, -1.00, 248.9, 60.7)">,</text><text xml:space="preserve" font-family="Helvetica-Light,Helvetica" font-size="42.0" fill="#000000" transform="matrix(1.00, 0.00, -0.00, -1.00, 260.5, 60.7)"> </text><text xml:space="preserve" font-family="Helvetica-Light,Helvetica" font-size="42.0" fill="#000000" transform="matrix(1.00, 0.00, -0.00, -1.00, 272.2, 60.7)">d</text><text xml:space="preserve" font-family="Helvetica-Light,Helvetica" font-size="42.0" fill="#000000" transform="matrix(1.00, 0.00, -0.00, -1.00, 297.9, 60.7)">a</text><text xml:space="preserve" font-family="Helvetica-Light,Helvetica" font-size="42.0" fill="#000000" transform="matrix(1.00, 0.00, -0.00, -1.00, 321.2, 60.7)">l</text><text xml:space="preserve" font-family="Helvetica-Light,Helvetica" font-size="42.0" fill="#000000" transform="matrix(1.00, 0.00, -0.00, -1.00, 330.6, 60.7)">š</text><text xml:space="preserve" font-family="Helvetica-Light,Helvetica" font-size="42.0" fill="#000000" transform="matrix(1.00, 0.00, -0.00, -1.00, 351.6, 60.7)">í</text><text xml:space="preserve" font-family="Helvetica-Light,Helvetica" font-size="42.0" fill="#000000" transform="matrix(1.00, 0.00, -0.00, -1.00, 360.9, 60.7)"> </text><text xml:space="preserve" font-family="Helvetica-Light,Helvetica" font-size="42.0" fill="#000000" transform="matrix(1.00, 0.00, -0.00, -1.00, 372.6, 60.7)">s</text><text xml:space="preserve" font-family="Helvetica-Light,Helvetica" font-size="42.0" fill="#000000" transform="matrix(1.00, 0.00, -0.00, -1.00, 393.6, 60.7)">o</text><text xml:space="preserve" font-family="Helvetica-Light,Helvetica" font-size="42.0" fill="#000000" transform="matrix(1.00, 0.00, -0.00, -1.00, 416.9, 60.7)">u</text><text xml:space="preserve" font-family="Helvetica-Light,Helvetica" font-size="42.0" fill="#000000" transform="matrix(1.00, 0.00, -0.00, -1.00, 440.3, 60.7)">b</text><text xml:space="preserve" font-family="Helvetica-Light,Helvetica" font-size="42.0" fill="#000000" transform="matrix(1.00, 0.00, -0.00, -1.00, 465.9, 60.7)">o</text><text xml:space="preserve" font-family="Helvetica-Light,Helvetica" font-size="42.0" fill="#000000" transform="matrix(1.00, 0.00, -0.00, -1.00, 489.3, 60.7)">r</text><text xml:space="preserve" font-family="Helvetica-Light,Helvetica" font-size="42.0" fill="#000000" transform="matrix(1.00, 0.00, -0.00, -1.00, 504.0, 60.7)">y</text><text xml:space="preserve" font-family="Helvetica-Light,Helvetica" font-size="42.0" fill="#000000" transform="matrix(1.00, 0.00, -0.00, -1.00, 521.2, 60.7)">,</text><text xml:space="preserve" font-family="Helvetica-Light,Helvetica" font-size="42.0" fill="#000000" transform="matrix(1.00, 0.00, -0.00, -1.00, 532.8, 60.7)"> </text><text xml:space="preserve" font-family="Helvetica-Light,Helvetica" font-size="42.0" fill="#000000" transform="matrix(1.00, 0.00, -0.00, -1.00, 544.5, 60.7)">n</text><text xml:space="preserve" font-family="Helvetica-Light,Helvetica" font-size="42.0" fill="#000000" transform="matrix(1.00, 0.00, -0.00, -1.00, 567.9, 60.7)">a</text><text xml:space="preserve" font-family="Helvetica-Light,Helvetica" font-size="42.0" fill="#000000" transform="matrix(1.00, 0.00, -0.00, -1.00, 591.2, 60.7)">s</text><text xml:space="preserve" font-family="Helvetica-Light,Helvetica" font-size="42.0" fill="#000000" transform="matrix(1.00, 0.00, -0.00, -1.00, 612.2, 60.7)">t</text><text xml:space="preserve" font-family="Helvetica-Light,Helvetica" font-size="42.0" fill="#000000" transform="matrix(1.00, 0.00, -0.00, -1.00, 623.9, 60.7)">a</text><text xml:space="preserve" font-family="Helvetica-Light,Helvetica" font-size="42.0" fill="#000000" transform="matrix(1.00, 0.00, -0.00, -1.00, 647.2, 60.7)">v</text><text xml:space="preserve" font-family="Helvetica-Light,Helvetica" font-size="42.0" fill="#000000" transform="matrix(1.00, 0.00, -0.00, -1.00, 668.2, 60.7)">e</text><text xml:space="preserve" font-family="Helvetica-Light,Helvetica" font-size="42.0" fill="#000000" transform="matrix(1.00, 0.00, -0.00, -1.00, 691.6, 60.7)">n</text><text xml:space="preserve" font-family="Helvetica-Light,Helvetica" font-size="42.0" fill="#000000" transform="matrix(1.00, 0.00, -0.00, -1.00, 714.9, 60.7)">í</text><text xml:space="preserve" font-family="Helvetica-Light,Helvetica" font-size="42.0" fill="#000000" transform="matrix(1.00, 0.00, -0.00, -1.00, 724.3, 60.7)"> </text><text xml:space="preserve" font-family="Helvetica-Light,Helvetica" font-size="42.0" fill="#000000" transform="matrix(1.00, 0.00, -0.00, -1.00, 59.0, 10.7)">t</text><text xml:space="preserve" font-family="Helvetica-Light,Helvetica" font-size="42.0" fill="#000000" transform="matrix(1.00, 0.00, -0.00, -1.00, 70.7, 10.7)">e</text><text xml:space="preserve" font-family="Helvetica-Light,Helvetica" font-size="42.0" fill="#000000" transform="matrix(1.00, 0.00, -0.00, -1.00, 94.1, 10.7)">s</text><text xml:space="preserve" font-family="Helvetica-Light,Helvetica" font-size="42.0" fill="#000000" transform="matrix(1.00, 0.00, -0.00, -1.00, 115.1, 10.7)">t</text><text xml:space="preserve" font-family="Helvetica-Light,Helvetica" font-size="42.0" fill="#000000" transform="matrix(1.00, 0.00, -0.00, -1.00, 126.7, 10.7)">o</text><text xml:space="preserve" font-family="Helvetica-Light,Helvetica" font-size="42.0" fill="#000000" transform="matrix(1.00, 0.00, -0.00, -1.00, 150.1, 10.7)">v</text><text xml:space="preserve" font-family="Helvetica-Light,Helvetica" font-size="42.0" fill="#000000" transform="matrix(1.00, 0.00, -0.00, -1.00, 171.1, 10.7)">a</text><text xml:space="preserve" font-family="Helvetica-Light,Helvetica" font-size="42.0" fill="#000000" transform="matrix(1.00, 0.00, -0.00, -1.00, 194.4, 10.7)">c</text><text xml:space="preserve" font-family="Helvetica-Light,Helvetica" font-size="42.0" fill="#000000" transform="matrix(1.00, 0.00, -0.00, -1.00, 217.8, 10.7)">í</text><text xml:space="preserve" font-family="Helvetica-Light,Helvetica" font-size="42.0" fill="#000000" transform="matrix(1.00, 0.00, -0.00, -1.00, 227.1, 10.7)">h</text><text xml:space="preserve" font-family="Helvetica-Light,Helvetica" font-size="42.0" fill="#000000" transform="matrix(1.00, 0.00, -0.00, -1.00, 250.5, 10.7)">o</text><text xml:space="preserve" font-family="Helvetica-Light,Helvetica" font-size="42.0" fill="#000000" transform="matrix(1.00, 0.00, -0.00, -1.00, 273.8, 10.7)"> </text><text xml:space="preserve" font-family="Helvetica-Light,Helvetica" font-size="42.0" fill="#000000" transform="matrix(1.00, 0.00, -0.00, -1.00, 285.5, 10.7)">p</text><text xml:space="preserve" font-family="Helvetica-Light,Helvetica" font-size="42.0" fill="#000000" transform="matrix(1.00, 0.00, -0.00, -1.00, 311.2, 10.7)">r</text><text xml:space="preserve" font-family="Helvetica-Light,Helvetica" font-size="42.0" fill="#000000" transform="matrix(1.00, 0.00, -0.00, -1.00, 324.4, 10.7)">o</text><text xml:space="preserve" font-family="Helvetica-Light,Helvetica" font-size="42.0" fill="#000000" transform="matrix(1.00, 0.00, -0.00, -1.00, 347.7, 10.7)">s</text><text xml:space="preserve" font-family="Helvetica-Light,Helvetica" font-size="42.0" fill="#000000" transform="matrix(1.00, 0.00, -0.00, -1.00, 368.7, 10.7)">t</text><text xml:space="preserve" font-family="Helvetica-Light,Helvetica" font-size="42.0" fill="#000000" transform="matrix(1.00, 0.00, -0.00, -1.00, 380.4, 10.7)">ř</text><text xml:space="preserve" font-family="Helvetica-Light,Helvetica" font-size="42.0" fill="#000000" transform="matrix(1.00, 0.00, -0.00, -1.00, 394.4, 10.7)">e</text><text xml:space="preserve" font-family="Helvetica-Light,Helvetica" font-size="42.0" fill="#000000" transform="matrix(1.00, 0.00, -0.00, -1.00, 417.8, 10.7)">d</text><text xml:space="preserve" font-family="Helvetica-Light,Helvetica" font-size="42.0" fill="#000000" transform="matrix(1.00, 0.00, -0.00, -1.00, 443.4, 10.7)">í</text></g></svg>